<svg width="2077" height="1278" viewBox="0 0 2077 1278" fill="none" xmlns="http://www.w3.org/2000/svg">
<g clip-path="url(#clip0_175_10)">
<path d="M0 639V0H1038.5H2077V639V1278H1038.5H0V639Z" fill="#090909"/>
<path d="M0 639V0H1038.5H2077V639V1278H1038.5H0V639Z" fill="#090909"/>
<path d="M0 1153.37C0 1043.21 0.450054 1028.96 3.37541 1031.45C10.5763 1037.55 13.0516 1032.58 14.1767 1010.64C15.7519 974.447 38.0296 916.088 66.158 873.564C95.4115 829.682 123.09 807.289 164.27 793.943C181.822 788.288 225.027 784.895 225.027 789.193C225.027 790.777 224.127 791.455 223.002 790.777C221.877 789.872 220.527 790.55 220.077 791.681C219.626 793.038 212.201 795.527 203.65 797.336C195.098 799.146 183.622 802.765 178.446 805.253C173.046 807.741 168.32 809.777 167.645 809.777C166.745 809.777 160.219 813.848 153.018 818.825C128.49 835.563 106.663 860.671 91.136 890.302C86.6354 898.898 81.9099 907.041 81.0098 908.172C79.8846 909.529 77.8594 915.636 76.2842 921.743C74.934 928.077 72.4587 934.636 70.8835 936.446C69.3083 938.255 66.833 945.494 65.2579 952.28C63.6827 959.065 61.6574 965.851 60.5323 967.208C59.4072 968.566 58.9571 970.149 59.6322 970.828C60.3073 971.28 59.1821 977.84 57.1569 985.304C50.6311 1010.64 52.6563 1027.38 61.6574 1023.98C64.5828 1022.85 65.2579 1018.78 65.2579 1003.85C65.2579 993.447 66.158 981.459 67.2831 977.161C73.8089 951.601 79.2095 933.053 80.7847 931.922C81.6848 931.243 83.7101 926.493 85.0602 921.291C86.6354 916.088 89.1107 910.434 90.6859 908.85C92.0361 907.041 96.3116 899.802 99.912 892.564C103.737 885.326 108.463 877.183 110.713 874.469C112.964 871.98 116.339 867.683 118.364 865.195C121.29 861.123 121.29 861.349 118.364 867.909C116.339 871.754 114.089 875.373 113.189 875.826C109.138 877.409 91.361 917.898 92.0361 923.553C92.2611 925.589 91.586 927.398 90.4609 927.398C89.3358 927.398 87.5355 931.243 86.6354 935.994C85.9604 940.517 83.7101 948.887 81.6848 954.542C76.0592 971.506 69.7584 1027.83 69.7584 1063.34C69.7584 1092.29 70.2085 1097.27 73.8089 1101.57C81.0098 1110.39 84.1601 1105.41 82.1349 1088.22C79.6596 1065.38 79.8846 1061.98 84.1601 1029.19C101.487 897.993 141.992 826.968 203.65 819.729C214.226 818.372 216.026 818.825 216.026 821.765C216.026 823.801 212.651 826.968 208.825 828.551C190.373 836.468 162.92 862.933 145.142 890.076C126.015 919.481 113.639 952.28 106.438 992.995C101.037 1025.11 100.812 1109.48 106.438 1122.6C110.263 1131.65 115.439 1133.46 119.039 1126.68C120.84 1123.74 120.389 1118.99 117.914 1110.39C104.188 1064.25 121.29 945.268 147.843 902.064C150.768 897.314 153.018 892.564 153.018 891.207C153.018 890.076 153.919 888.945 155.044 888.945C156.169 888.945 158.194 885.778 159.769 882.159C163.82 872.207 192.173 844.611 204.775 838.277L215.576 832.849L217.826 837.825C219.626 841.897 218.501 844.837 209.95 856.147C182.947 892.112 168.77 938.708 168.77 992.09C168.77 1016.75 175.746 1068.09 180.922 1082.34C182.722 1087.32 184.297 1095.46 184.522 1100.66C184.522 1110.39 187.673 1115.14 193.973 1115.14C200.049 1115.14 199.149 1102.47 192.398 1088.9C185.422 1074.88 179.797 1041.17 178.446 1004.3C176.196 947.756 191.948 892.564 219.176 860.671C225.027 853.885 227.502 852.301 229.528 854.111C231.553 856.147 230.428 860.671 224.352 873.338C203.65 916.993 198.474 947.077 205 985.983C207.475 1000.01 219.401 1033.48 223.002 1035.97C223.902 1036.65 226.602 1041.85 229.078 1047.28C231.553 1052.94 235.378 1059.27 237.854 1061.31C241.679 1064.7 242.804 1064.92 246.405 1062.21C250.455 1059.27 250.23 1058.59 242.354 1049.32C232.228 1037.55 223.902 1020.59 219.401 1002.72C208.825 960.875 211.525 915.636 226.377 883.064C229.303 876.504 231.778 870.171 231.778 869.04C231.778 867.909 233.578 865.421 235.603 863.385C238.979 860.445 241.679 860.218 250.905 862.028C257.206 863.385 268.232 863.611 275.883 862.933L289.61 861.575L295.911 879.219C304.012 902.064 311.888 951.375 312.563 983.042C313.013 1011.09 307.612 1043.44 297.936 1069C292.535 1083.7 274.083 1117.4 264.857 1129.84C248.88 1151.33 214.676 1190.46 203.424 1200.42C189.698 1212.18 158.644 1235.02 156.169 1235.02C155.494 1235.02 151.893 1237.28 148.518 1240.23C145.142 1242.94 137.042 1248.37 130.741 1251.99C124.44 1255.83 119.264 1259.45 119.264 1260.58C119.264 1264.65 100.812 1257.64 93.6113 1250.63C92.2611 1249.5 87.7606 1248.59 83.26 1248.59C73.1338 1248.59 68.4082 1253.34 64.5828 1266.92L61.6574 1276.87L30.8287 1277.55L0 1278.23V1153.37Z" fill="#BF852E"/>
<path d="M74.259 1275.29C74.259 1268.05 79.4347 1257.87 83.7102 1256.51C86.4105 1255.61 89.7859 1256.51 92.4862 1259C98.3369 1264.2 97.8869 1266.01 90.686 1267.82C87.0856 1268.5 82.135 1271.44 79.4347 1273.93C75.3842 1277.77 74.259 1278 74.259 1275.29Z" fill="#BF852E"/>
<path d="M87.7605 1275.74C92.2611 1272.8 107.338 1272.8 109.138 1275.74C110.038 1277.1 105.538 1278 97.4367 1278C88.2106 1278 85.2852 1277.32 87.7605 1275.74Z" fill="#BF852E"/>
<path d="M133.441 1275.29C133.666 1273.7 132.541 1272.57 130.966 1273.02C129.165 1273.25 128.49 1272.57 129.39 1271.21C130.065 1270.08 129.615 1268.95 128.04 1268.95C126.465 1268.95 125.79 1268.5 126.465 1267.82C128.49 1265.79 133.891 1268.73 136.816 1273.48C139.067 1277.32 139.067 1278 136.141 1278C134.341 1278 132.991 1276.64 133.441 1275.29Z" fill="#BF852E"/>
<path d="M317.288 1276.64C317.288 1275.96 320.664 1268.05 324.939 1259.23C349.017 1207.65 367.694 1143.19 371.745 1096.14C373.995 1069.9 372.645 987.114 369.944 970.828C368.594 964.268 369.269 963.137 373.77 962.006C381.646 959.97 419.225 940.065 429.127 932.827C442.178 923.101 475.257 895.505 481.558 888.945C494.609 875.826 512.837 851.623 518.237 840.766C521.613 834.206 524.763 823.349 525.663 816.563C527.013 804.801 526.563 803.443 518.462 791.229C509.011 777.431 492.584 759.562 471.207 739.883C454.105 724.275 401.223 680.846 393.122 675.417C389.522 673.382 385.246 667.953 383.446 663.881C380.521 656.869 380.746 655.286 387.272 640.81C391.097 632.44 396.273 620.904 398.748 615.25C401.223 609.595 405.049 600.999 407.299 596.023C409.774 591.047 417.425 573.856 424.401 557.57C431.377 541.51 441.503 518.664 446.904 507.128C452.304 495.593 456.805 485.64 456.805 484.961C456.805 484.057 465.131 465.056 473.682 446.734C486.508 419.365 499.56 390.638 499.56 389.733C499.56 389.281 504.736 378.197 510.811 365.078C517.112 351.959 522.063 340.875 522.063 340.197C522.063 339.518 524.538 333.637 527.688 327.304C530.614 320.744 540.74 298.803 549.966 278.219L566.843 240.897L576.069 240.219C583.495 239.54 585.07 238.635 585.07 235.016C585.07 232.302 582.82 228.457 580.12 226.195L574.944 221.897L579.895 212.849C582.595 207.647 583.945 203.123 583.27 202.67C581.695 201.992 574.044 199.956 540.74 192.492L522.063 188.42V193.623C522.063 202.67 520.037 205.159 513.062 204.028C500.01 202.218 496.185 213.754 507.886 219.183C513.062 221.671 513.512 222.802 512.162 230.945C510.811 239.54 483.583 323.232 468.056 366.435C464.231 377.067 459.055 391.317 456.805 398.103C450.054 418.008 441.953 440.853 434.302 461.437C430.477 472.068 425.976 484.735 424.176 489.711C422.601 494.688 415.4 514.14 408.424 532.688C401.673 551.463 391.772 577.927 386.821 591.499C372.645 630.631 368.594 639.905 364.319 641.262C360.718 642.619 357.793 651.441 357.793 662.072C357.793 666.37 356.893 667.5 354.193 666.37C346.542 663.429 342.491 679.036 348.792 686.275C350.592 688.084 346.992 700.977 342.041 711.382C340.916 713.87 336.415 725.633 331.915 737.395C318.413 773.133 319.313 771.776 315.263 769.967C300.186 763.633 264.857 762.502 249.78 767.931C244.604 769.74 232.453 771.324 223.002 771.324C146.718 771.324 86.4103 809.098 45.2304 882.159C24.9779 918.124 6.75074 972.637 6.75074 997.745C6.75074 1002.95 5.85063 1006.34 4.7255 1005.44C3.37534 1004.76 2.02517 1009.05 1.57512 1014.94C1.12506 1021.04 0.675011 846.873 0.449984 627.916C-7.05868e-05 275.279 0.449984 230.492 3.37534 231.623C5.17555 232.302 6.75074 231.85 6.75074 230.945C6.75074 229.814 5.40058 228.457 4.05042 228.004C1.80015 227.099 0.900038 201.766 0.449984 113.55L-0.225098 -1.29254e-05H49.9559H100.137L104.412 14.0241C118.814 60.394 136.141 77.5848 184.522 92.966C199.149 97.7161 205.9 98.3947 235.153 98.3947H268.907L283.534 90.7041C314.138 74.6442 333.49 46.8223 336.865 14.2503L338.216 -1.29254e-05H346.542C353.517 -1.29254e-05 355.318 0.904766 356.218 4.97627C356.893 7.9168 358.018 31.4411 358.918 57.6796C359.593 83.9182 360.718 110.609 361.393 117.169C362.969 132.55 369.719 147.705 377.37 153.36C382.546 157.205 382.996 158.562 381.646 166.027C379.621 176.432 367.694 190.004 353.742 197.92C342.941 204.028 324.489 208.551 300.411 211.492C292.985 212.397 284.659 214.433 281.959 216.242C279.259 218.052 274.983 219.409 272.733 219.409C265.532 219.409 233.128 201.992 222.777 192.492C217.151 187.515 211.975 183.218 211.075 183.218C210.4 183.218 206.575 178.468 202.749 172.587C194.423 159.92 193.748 150.872 200.949 144.086C208.6 136.848 209.95 131.419 205.9 125.312C198.474 114.002 189.023 120.788 184.747 140.467C180.922 156.979 184.747 165.574 203.649 184.349C212.651 193.396 224.802 203.801 230.653 207.873C240.554 214.433 261.031 221.671 270.482 221.671C272.733 221.671 274.533 222.802 274.533 223.933C274.533 226.195 263.057 227.099 239.204 226.195C223.902 225.742 199.149 218.956 201.849 216.016C202.974 215.111 201.399 214.885 198.474 215.564C195.323 216.242 193.973 215.79 195.098 214.206C195.999 212.849 195.098 212.397 192.848 213.302C190.598 213.98 189.023 213.754 189.023 212.623C189.023 211.266 187.673 210.361 185.872 210.361C184.297 210.361 180.247 207.873 176.871 204.706C171.021 199.278 170.795 198.599 172.371 182.313C173.721 166.027 173.721 165.801 168.095 164.217C155.719 161.277 152.343 166.253 154.368 185.027C155.719 196.337 157.069 199.051 165.17 206.968C170.795 212.397 178.671 217.373 184.522 219.183C190.148 220.766 195.098 223.028 195.773 224.159C197.574 226.873 226.377 232.754 243.479 233.885C252.48 234.338 260.581 233.433 265.532 231.397C270.933 229.135 277.683 228.683 288.035 229.588C304.462 231.397 353.742 226.195 374.22 220.54C389.072 216.694 400.773 208.778 407.074 198.147C412.475 189.099 422.151 158.336 424.176 142.955C425.301 134.812 426.876 130.514 429.577 129.61C434.302 127.8 445.554 117.395 445.554 114.681C445.554 113.55 447.354 109.931 449.829 106.764C452.079 103.371 457.705 92.0612 462.206 81.4301C466.931 70.7989 471.657 60.1678 472.782 57.6796C475.932 50.8938 483.808 27.5957 487.859 13.1193L491.684 -1.29254e-05H508.561H525.438L536.915 10.8573C565.718 37.5483 578.094 42.977 618.824 46.3699C665.18 50.2152 717.611 33.2506 741.014 6.78583L747.09 -1.29254e-05H780.394H813.923L817.298 12.4407C819.323 19.6789 819.999 25.56 818.648 26.2386C817.523 26.9172 810.322 24.8814 802.446 21.4885C776.793 10.6311 769.142 17.417 786.245 35.7387C791.87 41.846 796.596 47.9533 796.596 49.3104C796.596 52.9295 789.845 53.6081 779.044 51.12C767.117 48.4056 763.067 51.7986 761.267 65.3703C759.916 74.6442 760.141 74.8704 769.142 78.4895C781.294 83.2396 782.194 86.8587 772.743 92.5136C764.192 97.7161 760.591 104.728 760.591 116.49C760.591 125.99 765.317 129.157 777.919 127.348C783.544 126.669 787.595 127.121 788.72 128.705C789.62 130.288 787.595 137.753 784.219 145.669C780.844 153.586 778.594 162.86 779.044 166.479C779.719 172.587 780.394 173.039 788.72 172.813C793.67 172.587 801.996 171.682 807.397 170.777C816.623 168.967 816.848 169.194 816.848 175.527C816.848 183.444 823.824 195.432 830.35 199.051C837.551 202.897 844.076 196.337 848.352 180.73C850.152 174.622 849.702 174.17 833.5 166.253C809.647 154.943 799.071 143.181 791.42 119.883C783.544 95.9065 783.544 85.7278 791.87 71.2513C800.646 56.0963 825.174 27.8219 838.001 18.3218C847.902 10.8573 848.127 10.4049 843.401 8.143C834.85 3.6191 835.975 -1.29254e-05 845.877 -1.29254e-05C852.627 -1.29254e-05 855.103 0.904766 855.103 3.39291C855.103 5.20246 853.978 6.78583 852.402 6.78583C851.052 6.78583 850.377 7.46441 851.052 8.143C851.727 8.82158 858.253 7.69061 865.229 5.88105C877.38 2.71432 878.956 2.94052 889.757 7.01202C913.385 15.8336 937.013 37.7745 946.014 59.4892C947.814 64.0131 950.289 67.8584 951.189 67.8584C954.115 67.8584 969.867 51.12 969.867 47.9533C969.867 44.7865 970.317 44.7865 953.44 44.3341C937.688 43.6556 933.412 40.4888 940.613 34.6078C952.99 24.2028 954.34 9.72636 942.638 12.2145C939.038 12.8931 933.187 14.2503 929.812 14.9288C922.386 16.5122 915.86 11.5359 915.86 4.29769C915.86 0.226182 918.11 -1.29254e-05 968.741 -1.29254e-05H1021.62L1022.52 5.20246C1030.62 42.5246 1039.62 117.395 1039.62 146.348C1039.62 161.277 1038.05 171.456 1032.42 190.682C1023.65 221.671 1024.77 225.516 1044.13 230.492C1074.05 238.183 1174.64 222.123 1264.65 195.658C1324.73 177.789 1355.79 165.348 1374.69 151.55C1384.14 144.538 1384.37 144.086 1383.24 134.36C1381.89 122.371 1369.51 103.371 1353.76 89.1207C1347.91 83.692 1342.29 79.1681 1341.39 79.1681C1339.59 79.1681 1313.93 47.2747 1301.33 29.6315L1293.91 19.2265V30.7625V42.5246L1268.7 53.8343C1254.75 60.1678 1240.8 65.8226 1237.65 66.7274C1234.5 67.406 1230 68.9894 1227.52 70.1203C1219.65 73.7395 1177.12 87.3111 1121.76 104.05C1094.53 112.193 1065.28 119.657 1054.25 121.014L1043 122.598L1049.75 116.716C1053.58 113.55 1057.4 111.062 1058.3 110.835C1059.43 110.835 1065.5 108.347 1071.8 105.407C1088.46 97.4899 1104.21 90.7041 1117.26 85.7278C1155.06 71.7037 1201.19 54.7391 1218.52 48.4056C1267.13 30.7625 1291.66 19.9051 1291.66 16.0598C1291.66 14.9288 1290.08 12.8931 1288.05 11.3097C1286.25 9.50016 1283.55 6.33344 1282.43 4.07149C1280.4 0.226182 1281.53 -1.29254e-05 1303.13 -1.29254e-05C1325.86 -1.29254e-05 1325.86 -1.30872e-05 1324.28 5.20246C1320.23 17.8694 1320.46 22.1671 1324.73 24.429C1330.36 27.5957 1345.44 20.8099 1359.61 8.82158C1374.69 -3.84532 1384.59 -3.61913 1400.34 9.95255C1412.72 20.3575 1420.15 24.8814 1424.65 24.8814C1427.12 24.8814 1426.9 20.8099 1423.07 5.88105L1421.72 -1.29254e-05H1485.85H1549.99L1551.56 6.78583C1552.69 11.7621 1551.79 15.8336 1547.96 22.1671C1539.41 35.9649 1520.51 60.1678 1513.31 66.0488C1493.5 82.561 1465.83 94.097 1430.05 100.657C1398.99 106.085 1394.49 107.216 1393.59 109.931C1393.14 111.288 1395.39 113.55 1398.77 115.133C1405.29 118.074 1442.87 125.538 1463.58 128.026C1476.18 129.383 1476.63 129.61 1471.45 132.55C1468.53 134.36 1461.1 137.074 1455.02 139.11C1433.65 145.669 1408.89 156.527 1407.54 159.92C1406.42 163.086 1408.67 163.313 1424.87 162.182C1435.22 161.277 1450.52 158.789 1459.3 156.074C1478.65 150.419 1482.93 150.419 1482.7 155.622C1482.48 160.598 1478.2 167.61 1461.55 189.325C1442.2 214.206 1442.42 213.528 1451.65 211.718C1463.58 209.456 1480.9 199.956 1491.7 190.004C1503.18 179.372 1506.56 178.694 1504.53 187.063C1503.63 190.682 1502.51 206.968 1501.61 223.707C1500.26 252.433 1500.48 253.79 1504.53 252.886C1510.16 251.755 1516.68 238.862 1526.81 208.778C1531.53 194.754 1536.48 183.218 1537.83 183.218C1539.19 183.218 1544.14 190.682 1548.64 199.73C1553.36 208.778 1559.66 218.73 1562.81 221.671C1568.21 226.647 1568.89 226.873 1572.26 223.254C1581.27 214.206 1573.39 161.051 1561.69 150.419C1550.66 140.467 1560.79 123.728 1593.19 97.4899C1605.57 87.3111 1618.62 77.3586 1622 75.3228C1625.37 73.0609 1628.52 70.7989 1629.2 69.8941C1634.37 63.5607 1651.7 61.2987 1661.37 65.8226C1664.53 67.1798 1670.83 73.0609 1675.55 78.7157C1680.5 84.3706 1689.73 94.5494 1696.25 101.109C1707.73 112.645 1707.96 113.324 1705.93 121.919C1703.23 134.586 1707.06 141.372 1716.73 140.919C1720.78 140.919 1725.96 138.884 1728.21 136.848C1732.26 133.229 1733.16 133.455 1745.53 140.919C1761.96 150.872 1780.64 159.241 1802.47 166.479C1832.4 176.206 1881.23 175.979 1881.23 166.253C1881.23 164.444 1876.95 159.92 1871.78 156.074C1866.37 152.229 1859.85 147.479 1856.92 145.443C1849.5 140.014 1841.85 124.633 1845 121.467C1848.6 117.847 1866.37 118.978 1889.78 124.181C1914.76 129.836 1935.68 131.645 1948.28 129.836C1960.21 128.026 1976.64 116.264 1977.54 108.8L1978.44 103.597L1958.41 105.181C1943.11 106.311 1936.58 105.859 1930.51 103.371C1922.41 99.978 1914.98 93.8708 1914.98 90.4779C1914.98 87.0849 1930.28 84.1444 1959.99 81.6563C1975.51 80.2991 1991.49 78.0372 1995.54 76.68C2004.54 73.5133 2008.82 66.7274 2004.77 61.9773C2002.29 59.0368 1995.54 58.5844 1963.81 59.263C1939.73 59.7154 1925.33 59.0368 1924.88 57.6796C1924.43 56.5487 1932.76 52.0248 1943.78 47.7271C1966.51 38.6793 1980.01 31.2149 1985.86 24.8814C1989.69 20.5837 1989.69 19.9051 1986.54 16.7384C1980.69 10.6311 1966.96 9.50016 1889.55 7.69061C1837.57 6.55963 1815.97 5.42866 1816.64 3.6191C1817.32 1.80954 1855.35 0.904766 1947.16 0.452376L2077 -1.29254e-05V639V1278H1950.98H1824.74L1828.34 1271.21C1832.4 1263.3 1832.62 1251.08 1829.02 1222.36C1827.22 1206.07 1827.22 1199.74 1829.24 1195.21C1833.75 1184.81 1836.22 1187.52 1851.75 1221.68C1860.07 1239.77 1867.95 1247.92 1878.53 1249.95C1887.53 1251.76 1892.25 1249.5 1896.98 1241.13C1901.93 1232.08 1895.4 1213.99 1880.1 1195.21C1873.35 1186.84 1867.72 1179.38 1867.72 1178.25C1867.72 1170.11 1888.88 1177.12 1903.5 1190.24C1917.68 1202.68 1924.66 1204.03 1934.56 1195.67C1944.68 1187.07 1950.08 1175.53 1947.16 1168.75C1944.46 1162.64 1914.76 1146.81 1906.2 1146.81C1902.83 1146.81 1894.73 1141.6 1894.73 1139.12C1894.73 1137.53 1911.83 1140.93 1913.18 1142.96C1913.86 1144.32 1920.38 1145.68 1927.58 1146.35C1940.86 1147.49 1955.49 1142.51 1955.49 1136.63C1955.49 1132.33 1946.26 1125.32 1934.11 1120.12C1921.06 1114.69 1876.95 1105.64 1865.47 1106.09C1849.95 1106.77 1849.72 1106.77 1849.72 1097.72C1849.72 1078.5 1876.73 1050.22 1915.43 1028.51C1921.06 1025.34 1929.61 1020.14 1934.56 1016.97C1939.28 1013.8 1947.16 1008.38 1952.11 1004.98C1967.64 994.578 2002.74 957.256 2002.74 951.149C2002.74 949.565 2004.32 947.756 2006.12 946.851C2007.92 946.172 2009.49 946.625 2009.49 947.756C2009.49 949.113 2008.59 950.018 2007.47 950.018C2005.89 950.018 2002.29 957.935 1992.61 983.947C1991.26 987.34 1989.01 991.638 1987.66 993.447C1986.09 995.257 1985.41 997.519 1986.31 998.197C1986.99 999.102 1986.76 999.781 1985.41 999.781C1984.29 999.781 1983.16 1001.36 1983.16 1003.17C1983.16 1004.98 1984.51 1006.57 1985.86 1006.57C1988.34 1006.57 1989.91 1003.85 2000.04 982.816C2002.52 977.84 2006.12 972.411 2008.14 970.601C2010.17 969.018 2011.74 966.756 2011.74 965.851C2011.74 964.72 2016.69 955.899 2022.54 946.172C2038.07 920.612 2050 895.279 2050 887.814C2050 879.445 2042.35 869.492 2026.14 857.278C2018.72 851.623 2011.97 846.194 2010.62 845.289C2007.47 842.801 1980.91 825.384 1964.49 815.206C1957.06 810.682 1950.31 807.289 1949.86 807.967C1949.18 808.646 1955.04 814.527 1962.69 821.313C1984.29 840.313 2024.79 881.481 2026.14 886.231C2027.94 891.659 2022.09 914.279 2017.37 921.065C2013.99 926.041 2013.99 925.815 2015.34 915.636C2018.04 896.636 2013.32 886.457 1994.19 868.361C1979.56 854.79 1972.14 850.04 1936.13 832.17C1913.41 820.86 1894.73 810.682 1894.73 809.777C1894.73 808.646 1894.05 806.384 1893.38 804.574C1892.48 802.086 1894.95 799.824 1901.93 796.431C1914.08 790.777 1920.83 785.348 1918.58 783.312C1917.68 782.181 1911.15 781.503 1904.18 781.503C1891.8 781.503 1891.35 781.276 1892.03 775.848C1892.25 772.681 1895.63 765.895 1899.23 760.693C1905.98 751.193 1908 744.18 1903.73 744.18C1900.13 744.18 1883.25 753.228 1875.38 759.109C1865.02 767.252 1863.22 765.669 1869.07 753.907C1877.63 736.49 1879.65 726.537 1876.5 719.073C1875.15 715.454 1873.13 712.513 1872 712.513C1871.1 712.513 1867.72 716.811 1864.57 722.24C1852.42 742.823 1837.57 750.74 1838.7 735.811C1839.6 723.597 1838.7 721.109 1833.52 722.013C1829.02 722.692 1828.34 724.275 1827.67 735.133C1827.22 741.919 1828.12 754.133 1829.47 762.05C1830.82 769.967 1831.72 776.753 1831.27 777.205C1830.82 777.431 1825.19 774.717 1818.89 771.098L1807.19 764.312L1810.79 754.133C1813.94 744.859 1813.94 743.049 1810.57 734.228C1806.29 722.918 1795.27 711.835 1784.69 708.216C1768.94 703.013 1746.89 705.954 1735.41 715.001C1730.46 718.847 1730.01 718.847 1722.13 713.418C1709.53 704.823 1702.33 706.18 1689.73 718.847L1678.7 729.93H1662.5C1638.87 729.93 1622 740.335 1618.84 756.847C1615.92 772.455 1619.07 785.122 1627.4 793.039C1631.67 796.884 1636.62 800.503 1638.42 801.182C1640.9 802.086 1641.12 802.991 1638.65 805.705C1637.3 807.515 1634.6 812.944 1633.02 817.694L1630.1 826.289L1625.6 820.182C1601.29 785.8 1594.32 778.562 1587.57 781.276C1582.39 783.086 1581.27 795.3 1585.54 804.122C1587.57 808.646 1588.69 812.944 1587.79 813.622C1587.12 814.527 1578.79 811.134 1569.56 806.384C1545.04 793.943 1544.14 798.92 1567.31 820.86C1574.29 827.42 1579.46 833.527 1578.79 833.98C1578.11 834.658 1568.89 836.016 1558.09 837.146C1529.73 839.635 1529.96 841.444 1560.11 851.849C1569.56 855.242 1577.44 858.861 1577.44 859.766C1577.44 860.671 1573.16 862.028 1567.76 862.706C1562.59 863.611 1554.71 866.326 1550.44 868.814C1543.46 873.111 1543.24 873.79 1547.06 875.826C1549.76 877.409 1561.91 877.862 1580.37 876.957C1614.12 875.373 1611.64 871.754 1599.49 907.041C1592.74 926.493 1591.17 928.755 1583.52 933.279L1574.74 938.029L1580.82 939.613C1587.79 941.422 1588.24 938.482 1576.76 980.554C1565.74 1021.04 1565.06 1027.15 1569.79 1037.1C1583.07 1065.38 1653.95 1093.2 1746.21 1106.32C1791.22 1112.65 1788.97 1111.97 1788.97 1118.99C1788.97 1123.96 1774.11 1157.21 1766.46 1169.43C1761.51 1177.57 1753.19 1197.02 1749.81 1208.56C1743.06 1231.63 1745.98 1244.07 1757.46 1244.07C1765.56 1244.07 1773.21 1234.57 1785.81 1208.78C1799.32 1181.19 1805.84 1180.28 1802.24 1206.75C1797.52 1240.45 1797.07 1263.07 1801.12 1270.76L1804.94 1278H1747.79H1690.63L1690.4 1264.43C1690.18 1249.27 1687.48 1242.71 1680.73 1240.68C1673.53 1238.42 1667.68 1245.88 1662.95 1262.39L1659.12 1276.87L1569.79 1277.55L1480.68 1278L1490.35 1265.11C1525.68 1217.61 1528.16 1153.59 1497.33 1091.62C1476.63 1049.77 1446.47 1024.89 1402.82 1013.35C1366.59 1003.85 1318.43 1009.28 1293.23 1025.57C1270.95 1040.04 1235.62 1071.71 1174.64 1130.97C1125.81 1178.7 1116.81 1185.03 1079 1197.47C1049.75 1207.2 1041.88 1210.37 1041.88 1212.4C1041.88 1213.31 1047.28 1214.89 1053.8 1215.57C1082.61 1219.19 1093.86 1221.9 1097.23 1226.88C1100.83 1232.08 1108.26 1255.83 1110.51 1269.63L1111.86 1278H797.046H482.233L481.108 1254.93C480.658 1242.04 478.858 1229.37 477.282 1226.65C473.457 1219.19 463.106 1220.09 443.528 1229.37C414.725 1243.39 397.848 1259.45 408.424 1263.52C411.574 1264.88 429.802 1258.77 444.878 1251.54C448.929 1249.73 453.88 1248.59 455.68 1249.5C459.28 1250.86 464.231 1260.58 466.931 1271.89C468.506 1278 468.506 1278 457.03 1278C448.254 1278 445.554 1277.1 445.554 1274.61C445.554 1272.8 444.653 1271.21 443.528 1271.21C442.403 1271.21 440.378 1272.8 438.803 1274.61C436.552 1277.55 426.651 1278 376.695 1278C344.066 1278 317.288 1277.32 317.288 1276.64ZM511.486 1248.59C513.512 1237.28 511.711 1202 508.336 1189.56C506.086 1180.28 497.085 1169.43 491.684 1169.43C489.659 1169.43 480.208 1172.14 470.757 1175.31C439.928 1185.94 409.324 1207.2 412.475 1215.57C414.5 1220.77 422.826 1220.09 440.378 1213.31C448.704 1210.14 459.73 1206.07 464.456 1204.26C481.558 1197.7 486.733 1203.58 493.034 1236.15C496.86 1256.74 498.66 1260.36 504.511 1259.45C508.561 1259 509.911 1256.74 511.486 1248.59ZM839.351 1233.44C839.126 1221.68 835.075 1204.94 831.925 1202.9C826.524 1199.28 819.098 1201.32 811.223 1208.11C797.946 1219.87 802.221 1232.31 821.799 1237.28C827.199 1238.64 832.6 1240.23 833.725 1240.68C838.676 1242.49 839.351 1241.58 839.351 1233.44ZM904.834 1223.49C907.084 1218.96 906.184 1192.5 903.259 1177.34C902.809 1174.86 902.809 1169.43 903.709 1165.36C904.609 1158.8 906.634 1156.99 917.66 1151.78C933.862 1143.87 951.189 1132.1 954.115 1126.45C957.49 1120.12 956.815 1113.56 952.765 1111.97C946.464 1109.48 914.96 1110.62 901.458 1113.78C883.681 1118.08 877.155 1124.64 875.805 1140.47C874.455 1157.89 881.206 1206.52 886.607 1216.93C892.682 1228.92 900.333 1231.63 904.834 1223.49ZM868.829 1214.21C871.53 1196.8 862.304 1157.89 852.853 1146.81C847.452 1140.47 841.826 1141.15 829.9 1149.07C817.073 1157.66 786.92 1189.11 788.72 1192.05C790.97 1195.67 806.047 1194.53 815.723 1190.01C820.674 1187.75 828.1 1182.77 832.15 1178.93L839.351 1172.14L842.501 1178.02C844.301 1181.41 846.777 1190.24 848.352 1197.7C852.177 1216.48 856.453 1224.17 862.529 1223.26C866.354 1222.81 867.704 1220.55 868.829 1214.21ZM537.59 1205.84C539.84 1200.64 539.615 1194.76 535.789 1174.4C533.314 1160.6 529.714 1146.13 527.688 1142.28C525.663 1138.44 524.313 1134.14 524.763 1133.01C525.213 1131.65 533.539 1128.03 543.665 1124.64C570.894 1115.37 596.322 1098.4 590.921 1093.2C588.221 1090.48 569.543 1092.52 555.592 1097.04C531.064 1104.96 526.338 1105.19 519.362 1097.72C516.212 1094.33 510.361 1082.79 506.311 1072.16C497.085 1047.73 496.41 1046.38 492.134 1045.47C489.659 1045.02 487.859 1046.83 486.959 1051.13C484.483 1060.63 489.884 1098.18 495.96 1113.1L501.135 1126.22L494.609 1127.81C480.208 1130.97 446.004 1147.26 437.678 1154.72C427.551 1164.45 436.102 1170.78 451.629 1164.68C455.005 1163.32 466.481 1160.38 476.832 1158.12C502.035 1152.46 505.411 1154.05 514.862 1177.12C518.912 1186.62 522.063 1195.21 522.063 1196.57C522.063 1201.32 529.039 1212.4 531.964 1212.4C533.539 1212.4 536.239 1209.46 537.59 1205.84ZM948.714 1190.46C949.389 1186.84 953.44 1177.34 957.49 1168.97C966.266 1151.33 966.266 1151.33 943.988 1156.53C929.812 1159.93 924.636 1167.16 929.362 1178.25C933.187 1187.97 940.163 1196.57 944.214 1196.57C945.789 1196.57 947.814 1193.86 948.714 1190.46ZM790.07 1161.51C810.322 1154.5 843.851 1133.91 852.627 1123.28C855.328 1119.89 855.328 1118.31 851.952 1111.52C844.752 1095.91 798.621 1043.89 793.895 1045.47C785.794 1048.19 793.895 1074.2 810.997 1099.76L815.048 1106.09L808.747 1108.81C805.147 1110.16 794.12 1114.46 784.219 1118.31C763.967 1126.22 759.691 1131.2 761.717 1145.22C763.292 1156.76 768.917 1164.9 775.218 1164.9C777.919 1164.9 784.669 1163.32 790.07 1161.51ZM903.709 1090.48C923.286 1079.4 939.713 1069.22 940.163 1067.87C941.288 1064.47 927.787 1051.81 923.061 1051.81C921.261 1051.81 912.035 1055.42 902.584 1059.95C882.556 1069.45 868.604 1072.39 868.604 1066.96C868.604 1060.63 854.653 1026.7 851.502 1025.34C844.752 1022.85 837.776 1026.92 833.95 1035.75C829.9 1044.34 829.9 1045.02 834.625 1058.59C841.601 1078.72 849.927 1094.78 858.028 1103.38C861.854 1107.22 865.679 1110.62 866.579 1110.62C867.479 1110.62 884.131 1101.57 903.709 1090.48ZM1641.57 1103.83C1640.9 1102.7 1638.87 1101.57 1637.3 1101.57C1635.72 1101.57 1632.57 1099.53 1630.32 1097.04C1628.07 1094.56 1624.92 1092.52 1623.35 1092.52C1621.77 1092.52 1619.52 1091.16 1618.62 1089.35C1617.72 1087.77 1613.44 1084.6 1609.39 1082.57C1599.04 1077.14 1566.19 1053.39 1559.89 1046.6C1554.71 1040.95 1554.71 1040.72 1556.96 1015.39C1560.79 976.482 1561.46 949.791 1558.76 950.696C1555.16 951.827 1544.59 992.316 1539.19 1025.34C1535.13 1051.35 1536.71 1053.16 1592.07 1082.34C1605.79 1089.58 1617.94 1096.14 1619.29 1097.27C1620.64 1098.4 1622.45 1098.63 1623.12 1097.72C1624.02 1097.04 1624.7 1097.72 1624.7 1099.31C1624.7 1100.89 1625.37 1101.79 1626.05 1100.89C1626.72 1100.21 1630.55 1101.12 1634.37 1102.7C1643.15 1106.54 1643.37 1106.54 1641.57 1103.83ZM773.193 1095.46C786.92 1085.06 788.27 1072.62 776.343 1067.64C765.542 1063.12 762.617 1065.15 756.991 1082.34C754.066 1091.16 751.815 1099.53 751.59 1101.34C751.59 1106.09 763.742 1102.7 773.193 1095.46ZM567.968 1076.01C590.471 1065.6 606.223 1055.2 609.823 1048.41C617.024 1035.07 602.172 1035.52 569.318 1049.32C560.092 1053.39 550.641 1056.33 548.166 1055.88C540.965 1054.75 535.789 1044.79 531.964 1024.66C529.939 1014.03 526.788 1002.95 524.988 1000.01L521.613 994.804L516.887 999.554C512.837 1003.4 511.937 1007.24 511.711 1021.95C510.811 1054.97 518.462 1084.15 528.138 1086.19C535.564 1087.77 551.541 1083.7 567.968 1076.01ZM901.458 1042.53C905.734 1040.04 909.109 1036.42 909.109 1034.61C909.109 1031 882.331 1017.88 875.355 1017.88C873.105 1017.88 870.855 1019.23 870.18 1021.04C868.604 1025.11 871.98 1039.82 875.355 1043.89C879.406 1048.64 892.682 1047.96 901.458 1042.53ZM571.119 1032.13C595.872 1022.4 619.724 1005.44 618.374 998.423C617.249 991.864 611.398 992.09 594.746 999.328C569.543 1010.19 567.968 1010.41 563.018 1000.46C560.767 995.709 556.942 985.078 554.917 976.709C550.641 960.423 545.916 956.577 543.215 967.208C542.315 970.375 542.315 985.078 542.765 1000.01C543.665 1019.69 544.79 1028.28 547.716 1032.58C552.216 1039.59 552.666 1039.59 571.119 1032.13ZM1287.6 986.435C1319.11 978.292 1349.04 958.387 1386.84 920.16C1396.29 910.434 1404.17 900.933 1404.17 899.124C1404.17 894.148 1403.27 894.6 1389.77 906.588C1360.51 931.922 1325.41 954.768 1297.96 965.625C1268.48 977.387 1237.65 970.149 1215.15 946.399C1200.97 931.244 1194.44 917.219 1193.09 897.767C1190.62 860.671 1207.95 834.885 1241.7 825.611C1261.73 820.408 1299.31 833.075 1308.31 848.456C1319.56 867.683 1299.76 900.481 1271.18 909.981C1253.4 916.088 1238.55 909.076 1232.92 891.886C1229.55 881.028 1236.97 865.647 1249.13 859.54C1259.93 853.885 1262.63 853.885 1273.65 859.54C1285.8 865.647 1285.8 872.885 1273.88 884.647C1261.95 896.636 1259.25 896.183 1261.05 882.838C1262.4 871.98 1262.4 871.98 1257.9 876.504C1255.43 878.993 1252.95 884.195 1252.05 888.266C1250.93 894.148 1251.6 895.957 1256.55 899.124C1261.95 902.743 1262.85 902.743 1274.33 897.314C1284.23 892.79 1287.38 889.85 1291.43 881.707C1298.63 866.552 1295.03 855.016 1279.5 844.611C1272.53 840.087 1249.13 840.087 1240.8 844.385C1221.22 854.79 1210.65 877.183 1216.05 897.54C1223.47 926.493 1248.9 938.482 1282.2 928.529C1299.31 923.327 1322.93 899.802 1329.91 881.028C1343.41 844.159 1320.91 814.075 1272.53 804.122C1243.5 798.241 1220.32 804.122 1199.17 823.122C1153.71 863.837 1164.29 943.91 1219.42 976.482C1230.67 983.042 1253.4 990.28 1263.75 990.507C1267.58 990.733 1278.15 988.697 1287.6 986.435ZM591.146 973.542C594.296 966.756 597.222 954.994 597.897 947.53C599.022 936.22 598.572 934.184 595.422 934.184C590.696 934.184 588.671 939.387 582.82 963.816C577.419 987.34 577.419 986.209 581.92 986.209C583.945 986.209 587.771 981.006 591.146 973.542ZM818.198 976.256C831.025 963.363 827.649 948.887 812.348 950.47C806.272 951.149 804.472 952.732 800.646 962.006C796.821 970.828 796.371 973.768 798.396 978.292C801.996 986.209 808.972 985.53 818.198 976.256ZM1029.95 966.756C1031.75 962.006 1022.07 943.684 1015.55 939.387C1008.57 934.636 1000.92 937.125 990.119 947.53C973.692 963.363 979.543 969.923 1009.92 970.149C1025.22 970.375 1028.82 969.697 1029.95 966.756ZM929.587 959.065C943.088 955.22 952.54 947.303 959.065 934.41C967.841 917.219 972.792 912.696 991.469 904.779C1011.05 896.636 1012.62 896.409 1019.15 903.422C1021.85 906.362 1027.92 910.434 1032.65 912.696C1040.98 916.315 1041.65 916.315 1051.1 911.338C1078.55 897.54 1095.88 881.254 1095.88 869.492C1095.88 867.004 1091.83 858.183 1086.88 849.813C1074.73 829.456 1074.95 823.801 1088.91 809.325C1094.76 802.991 1105.56 794.622 1112.76 790.777C1121.76 786.026 1128.51 780.145 1133.91 772.681C1141.11 762.728 1142.01 759.788 1142.01 747.121C1142.01 730.835 1138.41 725.406 1123.79 720.656C1111.63 716.359 1109.38 710.704 1110.96 688.763L1112.31 670.667L1128.51 665.465C1137.74 662.75 1150.11 660.488 1156.19 660.488C1167.22 660.488 1167.67 660.262 1170.37 652.119C1171.94 646.691 1172.62 636.512 1171.72 623.393C1169.92 593.309 1164.74 583.13 1136.84 554.856C1123.11 541.058 1114.33 530.653 1115.01 528.843C1116.58 524.772 1127.39 518.438 1142.69 512.105C1163.61 503.283 1163.84 502.831 1155.74 475.914C1148.76 452.616 1140.21 436.103 1131.66 428.865C1125.36 423.436 1123.11 422.984 1103.98 422.984C1079.9 422.984 1079.45 422.758 1070.45 401.496C1066.18 391.317 1064.38 382.721 1063.7 367.566C1062.13 333.863 1051.78 319.839 1033.1 325.494C1024.32 327.982 1010.37 341.328 1010.37 346.983C1010.37 348.566 1008.35 351.733 1006.1 353.768C1002.27 357.388 999.12 357.614 982.243 356.257C970.767 355.126 961.541 353.316 959.74 351.507C958.165 349.697 956.14 342.459 955.24 335.447C949.839 286.815 942.188 278.446 905.734 281.16C876.705 283.422 861.854 293.148 861.854 310.113C861.854 320.97 855.553 327.982 846.327 327.982C836.426 327.982 832.6 320.97 832.6 303.553C832.6 290.208 831.925 288.398 825.174 281.612C811.673 268.041 783.319 266.457 771.618 278.898C769.142 281.612 764.642 288.624 761.717 294.279C751.815 313.732 737.639 321.196 716.711 318.03C706.585 316.446 700.059 310.565 696.684 299.256C694.208 291.565 686.332 282.743 681.832 282.743C677.106 282.743 670.131 289.303 663.605 299.708C658.654 307.625 657.979 331.601 662.255 348.34C664.505 357.161 665.855 358.519 671.256 359.197C674.856 359.65 683.407 357.614 690.383 354.673C702.534 349.697 705.91 349.471 752.715 349.471C798.396 349.697 804.697 350.149 832.6 356.03C909.334 372.09 958.84 396.972 999.12 439.27C1030.85 472.747 1046.6 505.319 1058.08 562.094C1062.35 582.904 1063.03 594.666 1063.25 633.345C1063.25 674.286 1062.58 682.203 1058.08 701.203C1046.6 748.026 1031.97 775.848 1007.45 795.527C988.994 810.682 959.965 826.063 934.987 833.754C916.76 839.635 911.81 840.313 884.356 840.087C849.927 839.861 795.471 831.718 762.842 821.765C729.088 811.586 713.336 802.539 690.608 780.824C651.453 743.502 641.777 725.633 638.627 684.465C636.827 661.167 637.727 596.475 640.202 580.642C640.652 577.927 641.552 569.558 642.452 562.094C645.828 533.367 657.079 498.759 670.131 477.045C676.881 466.187 704.335 452.389 736.063 444.473C816.173 423.889 888.407 453.52 952.089 532.688L966.491 550.784L965.816 589.237C964.916 646.012 959.065 688.084 949.839 703.918C939.938 720.656 918.785 729.478 884.131 731.74C855.328 733.549 845.427 731.514 817.073 717.716C778.819 699.168 758.566 683.56 748.215 664.786C742.139 653.703 741.464 650.083 740.789 627.69C740.114 605.523 740.564 600.773 745.965 584.713C754.966 556.665 768.242 539.474 788.27 530.427C799.071 525.45 804.022 524.545 826.074 524.545C855.328 524.319 860.053 526.129 880.306 545.355C893.582 558.248 894.483 565.939 884.356 577.475C872.655 591.047 876.705 601.678 893.357 601.678C903.484 601.678 908.434 598.285 913.61 588.106C918.785 577.701 919.461 563.225 914.96 554.629C911.36 547.617 898.533 536.081 894.258 536.081C892.907 536.081 891.107 530.653 890.432 523.188C889.532 515.045 887.282 507.807 884.131 503.509L879.181 496.723L885.706 501.474C903.259 514.367 918.335 534.498 928.237 559.153C934.537 574.761 939.038 604.618 937.013 618.416C934.087 637.869 915.41 661.846 900.108 665.239C883.681 669.084 864.329 667.727 851.952 661.393C835.75 653.25 819.999 636.964 811.898 620.226C806.047 608.011 805.147 603.94 806.047 593.082C806.947 582.451 808.297 579.511 814.373 574.082C818.423 570.463 819.999 567.749 818.198 567.749C813.023 567.749 803.797 580.416 802.221 589.916C799.071 608.69 810.547 636.059 828.55 652.798C839.801 663.203 850.827 670.893 853.753 669.989C854.653 669.536 856.678 670.215 858.253 671.572C862.529 674.965 879.406 676.774 893.582 675.191C904.609 673.834 909.109 672.024 918.335 664.56C924.636 659.584 931.612 652.345 933.862 648.5C936.113 644.429 939.263 640.131 940.388 638.548C945.114 633.345 947.814 603.261 945.114 586.749C935.888 527.486 897.858 484.283 841.151 468.223C790.745 453.747 740.114 464.83 711.31 496.497C683.632 527.26 670.581 569.106 670.356 628.821C670.131 700.751 681.832 736.264 716.711 770.193C760.141 812.265 835.525 833.527 900.558 822.218C936.563 815.884 971.892 799.146 996.645 776.979C1024.55 751.871 1042.78 709.12 1045.25 662.524C1047.5 622.488 1043.68 593.761 1028.15 530.427C1019.6 495.366 999.345 461.211 973.692 437.687C955.24 420.948 955.69 421.174 930.487 408.281C893.582 389.733 873.555 383.4 821.574 374.126C801.771 370.733 712.211 370.054 698.709 373.221C692.408 374.805 692.633 375.031 702.084 375.483C707.71 375.936 726.837 376.388 744.84 376.614C762.842 376.84 783.544 377.745 790.97 378.65C798.396 379.555 812.798 381.138 823.149 382.269C857.353 386.114 896.958 399.46 932.512 419.365C971.667 441.306 997.095 472.294 1014.87 520.248C1028.15 555.986 1036.7 617.738 1034.22 659.357C1032.65 682.429 1028.82 708.216 1026.35 710.251C1025.67 710.93 1023.65 715.454 1021.85 720.43C1020.05 725.406 1018.02 729.93 1017.35 730.609C1016.45 731.287 1013.07 736.716 1009.47 742.597C992.594 772.229 947.589 800.729 905.284 808.872C885.256 812.717 847.677 812.944 825.174 809.551C779.044 802.313 731.788 774.717 707.935 741.24C694.658 722.466 689.033 707.085 685.207 678.584C676.881 617.738 683.407 564.582 703.66 527.938C724.137 490.39 754.516 472.747 798.621 472.747C824.499 472.747 875.355 487.676 875.355 495.14C875.355 501.021 850.152 500.343 846.777 494.462C845.652 492.878 841.826 489.259 837.776 486.319C832.375 482.473 829.225 481.568 824.274 482.699C816.173 484.735 805.597 494.914 805.597 500.569C805.597 504.414 804.472 504.867 797.496 503.736C792.995 502.831 787.145 500.343 784.444 498.081C775.443 489.711 770.043 489.711 758.791 497.854C744.84 507.807 744.389 508.486 745.965 520.248C746.64 525.903 747.54 532.236 747.765 534.498C747.99 537.212 744.164 540.605 734.713 545.808C712.211 558.022 705.685 574.761 714.911 597.606C718.511 606.654 718.511 607.106 714.461 609.368C706.81 613.892 697.584 625.202 697.584 630.178C697.584 633.119 700.509 637.417 704.56 640.583C725.937 656.643 729.763 663.203 724.362 674.965C720.987 681.977 723.012 689.894 730.213 698.489C733.138 702.108 736.289 709.573 737.189 714.775C738.314 721.335 741.239 727.442 745.965 732.645C753.166 740.335 753.616 740.561 769.367 740.109C784.444 739.657 786.019 740.109 791.87 745.764C795.696 749.835 798.621 755.716 799.521 761.597C802.446 779.014 818.198 784.443 838.001 774.717C853.078 767.252 858.478 768.157 869.054 779.467C876.255 787.384 886.382 793.943 890.882 793.943C892.232 793.943 895.383 789.872 897.858 785.122C901.458 777.883 904.384 775.622 913.16 772.681C924.861 768.609 928.462 769.288 940.388 777.431C948.714 783.086 960.64 784.217 964.916 779.919C966.491 778.336 967.616 772.907 967.616 767.479C967.616 762.05 969.192 751.645 971.442 744.18C975.267 729.704 977.292 728.347 989.219 732.871C1006.32 739.43 1019.37 724.954 1020.05 698.715L1020.5 682.882L1011.05 673.834C993.719 657.774 993.719 652.798 1011.05 637.643C1019.82 629.726 1020.27 628.595 1020.27 617.285C1020.27 609.368 1018.92 602.809 1016 598.285C1009.7 587.88 998.67 576.796 994.845 576.796C992.144 576.796 992.144 576.118 995.07 572.951C999.795 567.522 1001.6 553.498 999.57 538.57L997.995 526.355L985.618 522.283C971.667 517.76 963.116 509.39 963.116 500.343C963.116 496.95 964.466 489.033 966.266 482.699C970.317 467.318 968.741 460.306 959.965 454.877C949.614 448.318 941.513 446.961 930.712 450.127C916.31 454.199 908.659 449.449 902.584 432.937C894.708 412.353 891.332 406.924 882.781 403.531C871.305 398.555 862.754 401.496 850.152 414.162C835.975 428.413 829.225 430.222 822.024 422.079C819.098 418.686 816.848 414.162 816.848 411.9C816.848 405.793 808.072 395.614 799.746 392.222C790.295 388.15 769.367 388.15 764.192 391.995C761.717 393.805 759.691 399.007 759.016 405.567C757.441 419.591 753.391 421.627 738.314 417.103C732.013 415.293 723.237 411.674 718.961 409.186C709.735 403.531 704.785 404.436 689.258 413.484C675.756 421.401 663.83 436.782 663.83 446.056C663.83 456.235 649.878 469.354 636.827 471.616C620.4 474.33 608.698 480.437 605.548 488.128C603.072 494.009 603.298 496.045 607.348 504.188C616.349 521.605 611.624 532.915 594.071 535.177C581.695 536.76 561.217 546.26 556.942 552.82C553.116 558.248 552.666 568.427 555.817 574.534C556.942 576.796 561.442 580.642 565.718 583.13C570.894 586.07 574.269 590.142 574.944 594.213C575.844 597.606 578.995 608.916 581.92 619.321C585.07 629.726 587.321 641.262 586.871 645.107C586.195 651.214 584.845 652.572 577.194 654.607C570.669 656.417 566.393 659.81 561.442 667.048C555.592 675.417 554.692 678.584 554.692 692.382C554.692 705.954 555.367 708.668 560.317 713.644C566.168 719.299 582.595 723.823 598.572 723.823C612.524 723.823 615.449 736.942 607.798 765.669C605.323 774.491 601.947 785.574 599.922 790.55C598.122 795.527 596.547 805.479 596.322 812.491C596.322 823.801 597.222 826.515 603.072 833.075C612.299 843.706 629.176 847.325 646.278 842.349C665.63 836.468 676.656 836.016 692.183 840.313C702.759 843.254 708.16 846.194 712.436 851.171C717.836 857.504 718.286 859.314 716.711 869.719C713.111 893.921 716.036 906.362 728.638 920.16C739.439 931.696 750.465 935.089 763.517 930.565C774.768 926.493 778.819 923.1 787.82 909.076C793.445 900.255 796.596 897.54 804.022 895.505C815.948 892.338 851.052 894.6 859.828 899.35C865.904 902.291 866.354 903.648 866.354 915.184C866.354 931.243 870.405 940.744 881.206 949.791C894.483 960.649 911.585 964.042 929.587 959.065ZM674.631 911.112C680.257 905.457 676.881 884.195 669.68 879.445C664.955 876.278 656.854 877.635 648.303 883.29C633.001 893.017 633.901 901.612 651.453 909.529C661.805 914.505 670.806 914.957 674.631 911.112ZM1457.28 873.338C1483.38 861.349 1490.13 821.991 1470.1 798.467C1455.7 781.729 1436.12 775.395 1417 781.503C1396.52 788.062 1353.99 830.587 1361.19 837.599C1363.44 839.635 1363.89 839.635 1363.21 836.92C1362.76 835.111 1363.89 833.754 1365.46 834.206C1367.26 834.432 1367.94 833.754 1367.04 832.396C1366.36 831.265 1367.26 829.456 1369.06 828.777C1371.09 828.099 1372.67 825.837 1372.67 824.027C1372.67 822.218 1373.57 821.313 1374.69 821.991C1375.82 822.896 1377.17 822.444 1377.62 821.313C1378.74 818.146 1404.84 797.11 1412.72 793.039C1432.97 782.407 1464.25 797.562 1468.53 820.182C1474.15 850.492 1455.7 870.397 1427.35 864.064C1416.77 861.576 1410.92 857.278 1407.99 850.04C1407.32 847.778 1407.54 845.516 1408.89 844.837C1410.02 843.932 1410.47 842.575 1409.79 841.444C1407.77 838.051 1425.32 821.087 1432.52 819.729C1447.15 817.015 1454.57 833.98 1443.55 844.837C1437.47 851.171 1435.22 851.623 1428.7 848.23C1423.3 845.289 1423.3 840.539 1428.25 834.658C1433.2 828.777 1435.22 829.003 1436.35 835.337C1437.25 839.635 1437.25 839.635 1437.7 834.206C1437.7 830.813 1437.02 827.42 1435.67 826.742C1431.62 824.253 1420.37 832.17 1417.9 839.408C1414.97 848.004 1417.22 851.849 1428.47 856.599C1434.55 859.087 1436.8 859.087 1443.32 856.373C1453.67 852.075 1458.18 844.837 1458.18 832.396C1458.18 823.801 1457.05 820.86 1451.87 815.884C1446.7 810.908 1443.55 809.777 1433.87 809.777C1423.75 809.777 1421.05 810.682 1413.39 817.92C1402.59 827.42 1396.29 842.575 1398.32 853.433C1399.89 862.254 1409.57 872.433 1419.02 875.373C1430.27 878.766 1447.6 877.862 1457.28 873.338ZM1127.61 852.754C1129.86 851.397 1133.46 847.325 1135.26 843.706C1138.41 837.825 1138.19 836.242 1134.81 829.003C1131.66 822.444 1129.86 821.087 1123.79 821.087C1109.61 821.087 1097.68 846.194 1108.93 852.528C1113.88 855.468 1121.98 855.694 1127.61 852.754ZM573.594 785.8C577.644 782.634 581.695 778.11 582.82 775.848C585.52 770.871 583.495 764.538 579.445 764.538C577.869 764.538 571.119 761.597 564.143 757.752C549.966 750.288 545.916 750.74 540.965 760.466C536.239 769.514 540.29 781.503 549.966 787.384C559.417 793.265 565.493 792.812 573.594 785.8ZM96.3115 753.002C95.6364 742.145 94.5113 732.418 93.6112 730.835C89.3357 723.823 87.7605 730.383 87.7605 756.169L87.9855 783.765L92.4861 778.11C96.7616 773.133 97.2116 770.193 96.3115 753.002ZM63.4576 772.455C65.2578 768.157 65.2578 762.955 63.4576 751.419C61.8824 743.049 60.5322 734.906 60.3072 733.097C60.0822 730.835 59.182 731.061 56.9318 734.228C53.7814 738.526 52.6563 773.812 55.5816 776.526C58.2819 779.467 60.7572 778.11 63.4576 772.455ZM81.0097 774.717C82.8099 772.455 83.485 765.895 82.5849 753.907C81.2347 732.871 80.3346 728.121 77.4092 728.347C74.7089 728.347 73.3588 778.11 76.0591 778.11C77.1842 778.11 79.4345 776.526 81.0097 774.717ZM48.1557 766.121C51.9812 755.716 51.7562 744.633 47.2556 734.002L44.3303 727.216L41.1799 737.395C39.3797 743.049 37.3544 753.907 36.6793 761.824C35.5542 774.717 35.7792 775.848 39.8297 775.848C43.2051 775.848 45.4554 773.133 48.1557 766.121ZM112.964 745.99C113.414 740.335 112.964 736.037 112.063 736.49C111.163 737.168 110.488 735.585 110.488 733.549C110.713 725.859 106.213 712.513 103.512 712.513C100.812 712.513 99.2369 726.763 101.712 731.287C102.837 733.549 103.062 737.395 102.162 740.109C101.262 742.823 101.712 744.18 103.062 743.276C104.187 742.597 105.763 746.216 106.663 751.419C107.563 756.395 108.913 761.824 109.813 763.181C111.388 765.895 111.838 763.633 112.964 745.99ZM1281.08 730.156C1294.36 723.144 1351.96 672.251 1391.34 632.893C1409.34 614.571 1413.17 609.595 1413.17 603.94C1413.17 597.154 1404.39 576.796 1398.32 570.011C1395.62 566.844 1397.19 566.618 1411.14 567.296C1441.3 569.106 1480.45 557.57 1534.46 530.879C1559.66 518.438 1575.19 502.831 1575.19 489.938C1575.19 482.699 1565.29 463.699 1561.46 463.699C1560.11 463.699 1559.66 462.794 1560.56 461.663C1561.24 460.306 1560.56 458.723 1558.99 457.592C1557.41 456.687 1552.01 450.806 1547.06 444.473C1531.08 424.567 1522.08 416.198 1516.46 416.198C1507.68 416.198 1471 439.949 1451.65 458.27C1430.5 478.176 1407.54 505.319 1398.54 520.926C1392.02 532.462 1389.99 547.843 1393.59 558.248C1394.72 561.415 1394.49 563.225 1393.14 563.225C1391.79 563.225 1390.67 561.868 1390.67 560.058C1390.67 558.248 1385.94 552.594 1380.32 547.617C1363.89 533.141 1360.51 534.046 1322.93 563.451C1311.23 572.725 1297.51 582.904 1292.56 585.844C1282.88 591.951 1273.88 601.225 1273.65 605.297C1273.65 606.654 1275.23 609.142 1277.25 610.952C1280.18 613.214 1283.1 612.535 1295.03 606.428C1303.13 602.13 1311.01 599.416 1313.03 600.321C1320.68 603.261 1316.18 610.273 1296.61 624.976C1268.93 645.56 1262.4 653.476 1262.4 666.143C1262.4 674.06 1263.3 676.322 1266 676.322C1269.38 676.322 1288.28 665.691 1294.58 660.262C1304.48 651.893 1330.13 633.571 1337.11 629.952C1362.76 616.607 1342.06 645.786 1287.6 700.299C1273.65 714.097 1262.4 726.311 1262.4 727.894C1262.4 729.252 1265.1 730.835 1268.7 731.287C1272.08 731.74 1275 732.418 1275.45 732.645C1275.9 732.645 1278.38 731.74 1281.08 730.156ZM81.0097 714.775L96.0865 710.251L97.6617 678.132C102.162 575.665 101.487 518.212 94.2863 463.699C88.8856 422.305 87.9855 403.305 86.4103 299.256C85.5102 238.409 83.935 186.611 83.0349 183.67C80.1096 175.753 75.159 175.301 56.4817 180.73C36.0043 186.837 26.7782 192.265 18.6772 202.897C12.8265 210.587 12.8265 211.04 15.3018 226.873C18.4521 245.421 26.5531 326.625 28.8034 360.78C29.7035 373.221 29.9285 398.103 29.2534 416.198C28.5784 434.294 28.8034 469.354 29.7035 494.235C35.5542 672.703 38.0295 708.894 45.4554 715.454C51.3061 720.43 62.3324 720.43 81.0097 714.775ZM1179.82 712.287C1186.34 709.346 1190.84 700.525 1188.82 695.322C1188.14 693.513 1184.99 690.799 1181.84 689.668C1174.64 686.953 1165.87 692.608 1162.71 701.882C1159.11 712.966 1167.67 717.942 1179.82 712.287ZM1501.16 677.227C1493.5 653.703 1484.73 630.631 1464.7 583.808C1461.1 575.439 1459.75 574.308 1455.48 575.439C1452.55 576.118 1446.47 576.796 1441.75 576.796C1434.1 576.796 1433.2 577.249 1434.55 581.32C1435.22 583.808 1450.52 612.309 1468.53 644.655C1486.3 677.227 1500.93 704.37 1500.93 705.049C1500.93 705.954 1502.73 708.442 1504.98 710.93C1508.81 715.228 1508.81 715.228 1509.48 710.025C1509.71 707.085 1506.11 692.156 1501.16 677.227ZM32.1788 705.727C32.8539 703.013 31.9538 675.87 30.1536 645.107C28.3533 614.345 25.878 572.951 24.7529 553.046C23.6278 533.141 21.6025 495.593 20.2524 469.354C18.9022 443.342 17.327 415.293 16.6519 407.15C16.2019 399.007 13.7266 362.364 11.2513 325.72C5.62561 238.862 2.92528 220.766 2.47523 269.172C2.47523 288.398 3.37534 321.649 4.50047 342.685C6.75074 385.21 7.87588 415.293 11.2513 527.034C12.6014 568.653 15.0767 615.023 16.877 629.952C18.6772 644.881 20.7024 668.179 21.3775 681.751C22.0526 695.322 23.1777 707.311 23.8528 708.442C26.1031 711.835 31.0537 710.251 32.1788 705.727ZM1994.64 699.168C1996.67 696.906 2001.17 688.084 2004.32 679.489C2009.94 664.56 2010.39 661.619 2010.84 617.511C2011.07 585.392 2009.94 558.248 2007.24 529.296C2001.84 476.14 2001.39 410.77 2006.12 393.579C2013.77 366.435 2017.82 337.256 2017.14 316.22C2016.02 270.529 2001.39 236.826 1979.56 228.683C1972.14 225.742 1957.96 228.683 1948.73 235.016C1919.93 254.469 1870.42 264.874 1811.47 264.195C1784.91 263.743 1776.81 264.648 1746.66 270.981C1720.56 276.41 1709.31 277.767 1699.4 276.862C1688.83 275.731 1684.55 276.184 1677.13 280.255C1666.55 285.684 1660.7 292.696 1660.7 300.16C1660.7 309.434 1671.73 307.172 1714.93 289.529C1735.86 280.708 1773.21 278.219 1773.21 285.231C1773.21 286.589 1767.14 293.601 1759.94 301.065C1747.11 313.958 1723.26 327.982 1714.26 327.982C1708.41 327.982 1685 338.84 1679.38 344.268C1669.93 353.09 1674.88 363.495 1687.03 360.554C1696.48 358.066 1716.06 346.756 1735.86 332.054C1760.61 313.506 1771.41 308.53 1790.99 306.72C1809.67 305.137 1818.22 301.744 1834.87 289.077C1850.62 277.088 1859.4 275.053 1894.73 275.279C1936.13 275.279 1955.94 280.481 1959.76 292.696C1962.91 302.422 1963.81 329.113 1961.11 329.113C1955.94 329.339 1945.81 338.387 1941.31 346.983C1936.81 355.578 1936.58 359.65 1936.13 404.888C1935.91 452.163 1935.68 454.199 1928.93 477.949C1913.41 531.784 1905.53 548.974 1891.58 558.475C1877.85 568.201 1865.02 570.689 1835.77 569.784C1812.59 568.88 1809.44 568.201 1799.09 562.32C1782.44 552.594 1757.46 526.129 1749.81 510.069C1741.03 491.295 1740.36 483.378 1746.21 461.211C1754.09 430.448 1770.06 407.377 1786.94 402.627C1808.09 396.519 1837.35 405.115 1852.42 421.853C1860.75 430.901 1869.52 451.485 1871.78 467.092C1875.83 494.235 1870.2 510.748 1853.77 519.343C1845.67 523.641 1819.79 523.414 1811.47 519.117C1798.64 512.331 1794.14 492.426 1801.79 476.14C1806.74 465.735 1815.29 465.282 1823.62 475.235C1831.05 484.057 1831.05 488.128 1823.39 489.033C1818.22 489.485 1816.87 491.069 1816.42 496.723C1815.07 510.748 1834.87 518.891 1844.55 508.486C1866.15 484.735 1862.32 449.223 1836.67 432.032C1828.12 426.377 1824.29 425.246 1812.59 425.246C1796.39 425.246 1784.01 431.806 1770.29 447.865C1760.84 458.949 1758.59 467.771 1760.39 485.414C1762.86 508.938 1785.14 538.117 1809.22 549.427C1827.22 557.796 1852.87 557.57 1869.07 549.201C1883.03 541.962 1899.23 523.867 1907.78 506.676C1913.41 495.14 1913.86 492.426 1913.86 464.83C1913.63 438.818 1912.96 433.615 1907.78 419.139C1898.33 393.579 1887.75 377.971 1872.23 366.435C1864.8 361.233 1862.55 360.78 1838.47 360.78C1814.39 360.78 1810.79 361.459 1788.29 369.376C1757.01 380.233 1749.81 384.079 1735.41 396.972C1713.81 416.424 1698.95 448.77 1698.95 475.914C1698.95 494.235 1707.96 525.45 1719.88 548.522C1737.43 581.999 1772.76 613.666 1806.97 626.785C1820.24 631.762 1824.97 632.214 1855.35 632.214C1892.48 631.988 1912.28 628.143 1941.98 614.571C1956.39 608.011 1971.91 594.44 1975.74 584.939C1977.54 580.868 1977.76 581.094 1977.99 586.975C1977.99 590.82 1979.56 609.142 1981.36 627.69C1983.16 646.464 1984.74 670.441 1984.74 681.072C1984.74 704.37 1986.76 707.989 1994.64 699.168ZM1543.69 693.965C1543.69 684.239 1522.53 615.928 1507.46 576.344C1501.83 562.094 1499.81 558.701 1496.88 559.832C1473.7 568.201 1471.45 570.237 1476.18 578.606C1477.3 580.642 1485.85 598.059 1495.3 617.285C1511.73 650.762 1532.88 690.12 1537.61 696.227C1540.99 700.525 1543.69 699.394 1543.69 693.965ZM119.489 690.572C122.64 681.977 122.865 675.191 120.839 603.94C120.164 569.784 118.814 501.021 118.139 451.258C116.789 347.661 109.363 241.576 100.812 196.789L97.8867 182.087L97.2116 214.885C96.3115 251.528 99.6869 340.649 105.088 433.163C107.113 467.544 109.138 536.308 109.363 590.368C109.813 643.298 110.038 688.763 110.038 691.703C110.263 698.715 116.564 698.037 119.489 690.572ZM1588.69 662.977C1587.12 655.965 1584.19 645.786 1581.94 640.131C1579.46 634.476 1574.06 619.773 1569.34 607.333C1546.84 546.26 1544.14 540.605 1538.06 540.605C1533.56 540.605 1513.76 547.391 1510.38 550.105C1507.46 552.594 1512.86 563.677 1532.21 594.892C1537.16 603.035 1543.91 614.119 1547.29 619.773C1570.01 657.548 1588.92 683.56 1590.49 678.584C1591.17 677.001 1590.27 669.989 1588.69 662.977ZM547.266 638.548C559.642 626.559 553.792 608.464 537.59 608.464C525.213 608.464 515.537 628.143 522.063 640.357C525.663 647.143 539.39 646.238 547.266 638.548ZM1618.84 633.797C1616.82 622.035 1608.27 594.213 1595.44 558.701C1580.14 516.176 1579.01 513.462 1576.31 513.462C1572.94 513.462 1563.94 525.903 1563.94 530.427C1563.94 533.367 1576.09 566.844 1581.94 580.189C1583.07 582.677 1587.57 593.309 1592.29 603.94C1605.34 634.024 1613.44 646.464 1618.39 643.298C1619.52 642.619 1619.74 638.321 1618.84 633.797ZM1194.44 550.332C1198.27 545.808 1201.64 540.379 1201.64 538.343C1201.64 534.724 1184.32 524.772 1178.02 524.772C1168.12 524.772 1160.91 553.272 1169.69 558.701C1176.22 562.772 1186.57 559.379 1194.44 550.332ZM338.216 545.808C343.616 540.605 342.941 537.665 334.84 531.557L327.864 526.355L322.464 532.462C316.838 539.022 315.488 548.522 320.213 550.558C324.264 552.141 333.715 549.879 338.216 545.808ZM227.277 545.355C228.402 542.867 229.528 537.212 229.528 532.915C229.528 522.51 223.677 522.057 215.351 531.557C208.15 539.474 208.15 540.153 213.101 545.582C217.826 551.01 224.352 550.784 227.277 545.355ZM329.665 519.117C370.845 499.438 377.82 493.557 383.671 473.652C391.772 445.377 395.823 401.043 391.772 382.043C385.921 354.673 364.094 324.589 334.165 302.875C313.688 287.72 305.812 285.005 285.334 285.005C263.957 285.005 207.925 295.184 202.074 300.16C194.873 306.494 177.546 334.768 173.046 347.661C168.32 361.459 162.019 408.96 162.019 430.901C162.019 454.651 164.945 460.759 185.197 480.437C195.323 490.164 207.475 500.795 212.425 504.188C217.151 507.355 225.252 512.783 230.428 516.176C250.905 529.974 265.532 535.629 282.409 535.855C291.86 536.081 299.286 533.367 329.665 519.117ZM397.398 514.593C408.424 503.509 407.074 495.593 394.922 498.533C385.471 501.021 377.82 522.51 386.146 522.51C388.397 522.51 393.347 518.891 397.398 514.593ZM177.771 505.319C177.771 502.152 176.196 496.045 174.396 491.747C169.895 480.89 163.37 481.795 162.469 493.557C161.794 500.343 162.92 503.283 167.42 507.807C174.171 514.367 177.771 513.462 177.771 505.319ZM1620.42 477.723C1647.87 448.544 1655.07 435.877 1654.17 419.139C1653.95 412.579 1647.2 412.353 1641.57 418.46C1637.07 423.436 1620.87 433.163 1612.77 435.651C1608.04 437.008 1608.04 436.782 1613.67 430.675C1617.04 427.056 1621.54 418.46 1623.57 411.674C1626.05 404.662 1630.55 396.519 1634.37 392.9C1640.67 387.019 1640.9 386.114 1637.97 380.912C1632.8 370.959 1616.59 357.84 1607.82 356.03C1596.34 353.995 1566.19 360.328 1554.04 367.566C1548.64 370.733 1542.34 376.162 1540.09 379.555C1530.63 394.031 1538.74 425.925 1556.29 442.663C1561.69 447.865 1566.19 452.842 1566.19 453.747C1566.19 454.651 1568.66 458.044 1571.36 461.211C1574.29 464.604 1578.56 472.068 1580.82 478.402C1586.22 492.878 1593.87 500.795 1599.72 497.854C1601.97 496.497 1611.19 487.45 1620.42 477.723ZM1405.74 474.33C1417.22 466.64 1415.42 461.89 1395.84 443.568C1363.89 414.615 1340.26 396.972 1335.54 399.007C1327.43 401.948 1335.09 419.817 1356.69 448.544C1365.46 460.08 1375.59 472.521 1379.42 476.592C1385.49 483.152 1387.07 483.604 1392.47 481.568C1395.84 480.211 1401.92 477.045 1405.74 474.33ZM624.675 449.223C630.076 444.699 630.976 442.211 631.201 431.806V419.591L620.625 418.913C610.273 418.234 609.823 418.46 605.323 427.282C599.472 438.818 599.697 442.889 605.773 449.449C611.849 456.008 617.024 456.008 624.675 449.223ZM1433.87 447.187C1434.77 445.83 1435.67 443.342 1435.67 441.758C1435.67 437.234 1414.07 412.579 1376.04 373.674C1350.61 347.661 1338.46 337.03 1335.09 337.03C1324.06 337.03 1330.58 355.578 1350.84 382.043C1373.57 411.9 1405.97 446.961 1413.62 450.127C1419.92 452.842 1431.4 451.032 1433.87 447.187ZM408.424 433.841C413.15 431.806 414.05 429.77 413.6 424.341C413.15 418.686 411.799 417.329 407.749 417.329C401.673 417.329 394.697 427.282 396.723 432.937C398.523 437.234 400.548 437.46 408.424 433.841ZM1452.55 429.317C1460.2 420.043 1459.3 411.222 1448.72 397.65C1414.52 352.864 1378.97 311.018 1372.21 307.399C1364.79 303.327 1361.41 306.494 1361.41 317.577C1361.41 323.006 1362.09 327.982 1363.21 328.435C1364.11 328.887 1367.94 333.185 1371.54 337.935C1375.37 342.911 1387.74 359.197 1399.22 374.126C1410.69 389.281 1425.32 409.412 1431.85 418.913C1438.37 428.639 1444.22 436.556 1445.12 436.556C1445.8 436.556 1449.17 433.389 1452.55 429.317ZM153.018 409.186C156.619 402.4 155.044 394.936 149.418 394.031C144.017 393.353 138.617 402.853 140.642 409.639C142.442 415.293 150.093 415.067 153.018 409.186ZM1503.18 406.472C1503.18 401.043 1486.08 373.447 1473.48 358.519C1471.45 356.03 1465.83 349.245 1461.1 343.59C1437.7 314.863 1402.59 277.767 1395.17 273.696C1391.34 271.66 1381.67 274.827 1381.67 277.993C1381.67 279.35 1383.69 282.065 1385.94 284.327C1389.99 288.172 1422.85 337.256 1440.4 365.757C1467.85 410.317 1469.2 411.448 1491.48 411.674C1502.28 411.674 1503.18 411.222 1503.18 406.472ZM1122.21 382.043C1130.54 378.876 1138.41 368.923 1138.64 361.459C1138.64 350.376 1115.01 336.804 1101.28 340.197C1096.78 341.328 1095.88 343.137 1095.88 350.149C1096.11 363.042 1100.16 378.65 1104.21 381.817C1108.93 385.21 1113.88 385.21 1122.21 382.043ZM411.349 372.769C415.4 368.697 414.5 362.364 409.324 357.161L404.599 352.411L399.198 359.876C391.322 370.507 391.997 375.483 401.223 375.483C405.274 375.483 409.774 374.352 411.349 372.769ZM160.669 337.709C162.469 333.185 158.194 327.982 152.568 327.982C146.718 327.982 144.917 334.09 149.643 339.292C153.693 343.816 158.644 343.137 160.669 337.709ZM1002.5 310.565C1006.1 306.494 1008.12 302.196 1007.67 298.577C1007 293.601 1005.65 292.922 997.77 292.244C984.043 291.339 977.518 300.16 982.468 313.053C984.718 318.934 995.97 317.577 1002.5 310.565ZM363.419 310.791C365.444 309.887 368.144 306.72 369.269 303.779C371.52 297.898 369.719 287.267 366.569 287.267C363.644 287.267 357.793 299.934 357.793 306.494C357.793 312.601 358.018 312.827 363.419 310.791ZM185.647 291.791C185.647 288.172 184.297 285.91 181.372 285.458C176.646 284.553 173.271 288.398 173.271 294.732C173.271 297.898 174.621 298.803 179.572 298.125C184.297 297.672 185.647 296.315 185.647 291.791ZM243.479 277.315C245.729 273.696 239.879 265.779 234.928 265.779C230.428 265.779 227.952 273.243 230.428 279.577C231.778 283.422 240.554 281.839 243.479 277.315ZM323.589 269.624C324.489 263.743 319.763 261.255 311.662 263.291C299.286 266.457 303.111 276.636 316.163 275.505C321.339 275.053 323.139 273.469 323.589 269.624ZM1241.7 265.553C1279.5 258.314 1307.41 242.481 1338.91 210.361C1379.87 168.741 1383.92 162.408 1361.41 175.527C1330.58 193.623 1286.48 213.075 1250.03 224.611C1215.37 235.469 1207.05 237.504 1178.02 241.802C1125.36 249.719 1106.91 249.719 1058.75 242.933C1048.18 241.35 1047.73 241.576 1050.65 245.195C1055.6 251.076 1072.25 258.993 1092.51 264.648C1106.46 268.719 1118.61 270.303 1147.64 271.207C1188.59 272.791 1212.22 271.207 1241.7 265.553ZM734.263 265.1C736.289 262.838 738.764 256.279 739.439 250.85C741.689 235.016 732.913 230.945 712.436 238.183C700.734 242.254 698.034 246.778 702.084 254.243C708.835 267.136 727.062 273.243 734.263 265.1ZM862.079 264.422C866.804 255.148 858.028 237.504 848.577 237.504C846.102 237.504 837.101 253.564 837.101 257.862C837.101 260.802 850.602 269.172 855.553 269.172C857.803 269.172 860.503 266.91 862.079 264.422ZM996.42 257.41C1000.92 252.886 999.57 245.647 991.244 228.909C983.818 214.206 976.842 203.349 942.188 152.003C935.212 141.598 929.362 130.967 929.362 128.479C929.362 125.99 932.512 120.109 936.113 115.359C944.439 104.728 944.889 93.1922 937.913 72.1561C932.287 54.9653 924.411 42.7508 910.91 30.0839C885.932 7.23822 850.152 15.155 817.298 50.8938C796.821 73.2871 792.32 92.2874 801.321 116.943C808.072 135.038 818.423 147.027 835.075 156.074C848.577 163.313 849.477 163.539 869.73 162.182C892.457 160.824 899.658 162.86 892.232 168.515C887.057 172.587 874.23 176.432 865.904 176.432C858.028 176.432 858.028 178.015 866.579 192.039C875.355 206.063 880.306 206.742 891.782 195.658C900.333 187.289 903.934 179.146 901.458 173.039C900.558 170.325 901.008 170.098 904.159 171.682C908.659 174.17 921.261 187.515 951.864 222.576C970.542 243.838 988.094 260.124 992.369 260.124C993.044 260.124 994.845 258.993 996.42 257.41ZM591.146 189.551L597.447 187.063L586.195 184.122C561.667 177.789 547.491 173.718 538.49 171.003C530.614 168.515 528.363 168.515 526.338 171.003C521.388 177.11 526.113 182.991 537.365 184.575C543.215 185.253 555.142 187.289 563.693 188.873C584.845 192.718 583.945 192.718 591.146 189.551ZM18.0021 173.265C18.0021 166.705 17.102 160.598 15.9769 159.241C14.8517 158.11 12.8265 153.586 11.4763 149.288C9.45107 142.503 9.22604 143.86 9.45107 160.146C9.67609 185.253 10.8012 190.908 14.8517 187.515C16.877 185.932 18.0021 180.503 18.0021 173.265ZM51.7562 172.813C53.1063 169.646 54.0064 156.527 54.0064 143.634C54.0064 122.371 53.5564 119.883 49.5059 117.621C45.0053 115.359 45.0053 115.812 45.0053 147.027C45.0053 178.468 47.0306 185.706 51.7562 172.813ZM597.222 177.11C600.372 173.718 536.464 154.491 530.164 156.753C523.863 159.241 526.338 162.634 536.239 165.122C541.415 166.253 549.066 168.515 553.116 169.872C557.167 171.229 567.743 173.491 576.744 175.301C585.52 176.884 593.621 178.241 594.296 178.468C594.972 178.694 596.322 178.015 597.222 177.11ZM34.6541 163.086C36.6793 154.039 33.529 121.24 30.6036 118.3C26.7782 114.228 22.7277 131.871 22.5026 154.039C22.5026 175.527 30.6036 181.861 34.6541 163.086ZM67.283 166.027C69.3083 161.277 70.4334 160.598 73.1337 162.86C80.3346 168.967 87.7605 152.229 87.7605 130.062C87.7605 111.514 79.2095 122.145 75.384 145.669C73.3588 157.431 72.2336 155.17 71.1085 136.848C70.4334 128.479 69.0832 120.562 67.7331 119.205C64.3577 115.812 63.4576 119.657 61.8824 147.705C60.5322 171.908 62.1074 177.337 67.283 166.027ZM966.941 130.741C968.516 129.383 969.867 127.121 969.867 125.538C969.867 121.467 955.015 103.823 953.215 105.859C952.314 106.538 949.614 111.966 947.139 117.621L942.638 127.8L947.589 131.871C952.765 136.169 961.316 135.491 966.941 130.741ZM973.017 91.6088C977.518 89.7993 981.118 87.0849 981.118 85.954C981.118 82.561 973.242 79.1681 961.766 77.5848C952.314 76.4538 951.189 76.68 952.54 80.0729C953.44 82.3349 954.115 86.6326 954.115 89.5731C954.115 96.1327 960.415 96.8113 973.017 91.6088Z" fill="#BF852E"/>
<path d="M1459.08 548.522C1457.28 543.998 1459.98 540.605 1465.15 540.605C1470.33 540.605 1471 548.522 1465.83 550.558C1460.88 552.367 1460.43 552.367 1459.08 548.522Z" fill="#BF852E"/>
<path d="M1429.37 543.546C1430.5 537.665 1437.92 536.986 1437.92 542.641C1437.92 546.034 1436.57 547.391 1433.2 547.391C1430.05 547.391 1428.92 546.26 1429.37 543.546Z" fill="#BF852E"/>
<path d="M1402.37 536.534C1401.92 534.95 1403.04 531.784 1405.07 529.748C1408.44 526.355 1409.12 526.355 1410.92 529.296C1412.05 531.105 1413.17 534.272 1413.17 536.081C1413.17 540.605 1404.17 540.831 1402.37 536.534Z" fill="#BF852E"/>
<path d="M1487.88 526.355C1484.73 522.51 1488.33 516.855 1492.83 518.664C1497.33 520.474 1497.33 523.415 1493.28 526.807C1491.03 528.617 1489.68 528.617 1487.88 526.355Z" fill="#BF852E"/>
<path d="M1458.18 522.736C1458.18 518.438 1463.35 514.819 1465.83 517.307C1468.98 520.7 1466.95 527.034 1462.68 527.034C1459.75 527.034 1458.18 525.45 1458.18 522.736Z" fill="#BF852E"/>
<path d="M1518.71 515.272C1508.13 500.795 1485.4 451.485 1488.1 448.544C1491.25 445.604 1516.91 481.342 1525.23 500.795C1534.01 520.7 1529.73 529.974 1518.71 515.272Z" fill="#BF852E"/>
<path d="M1434.32 503.283C1432.3 498.307 1435.45 494.688 1439.27 497.855C1443.32 501.247 1443.32 503.509 1439.05 505.319C1437.02 505.998 1435 505.093 1434.32 503.283Z" fill="#BF852E"/>
<path d="M1545.71 499.664C1541.44 495.593 1539.64 493.331 1541.44 494.235C1543.24 495.14 1542.11 493.331 1538.74 489.938C1535.13 486.545 1532.43 482.699 1532.43 481.568C1532.43 480.211 1530.41 476.366 1527.71 473.199C1505.21 444.246 1494.85 416.651 1512.41 432.258C1515.33 434.746 1516.68 436.33 1515.11 435.425C1512.18 434.068 1538.96 475.235 1546.61 483.83C1549.31 486.771 1549.99 488.354 1548.41 487.45C1546.16 486.319 1546.84 487.902 1549.54 492.2C1555.16 500.116 1557.64 506.676 1555.16 506.676C1554.26 506.676 1549.99 503.509 1545.71 499.664Z" fill="#BF852E"/>
<path d="M1472.58 494.235C1470.78 489.938 1475.28 486.092 1480 487.902C1484.28 489.485 1482.7 496.271 1477.75 497.176C1475.73 497.628 1473.25 496.271 1472.58 494.235Z" fill="#BF852E"/>
<path d="M1456.38 472.294C1456.83 469.354 1458.85 466.866 1461.1 466.413C1466.05 465.509 1468.98 472.521 1464.7 475.235C1459.08 478.854 1455.48 477.497 1456.38 472.294Z" fill="#BF852E"/>
<path d="M70.4335 678.132C61.8824 660.715 55.8067 636.059 56.0317 618.642C56.0317 603.94 56.9319 600.547 65.0328 585.618C70.2084 576.344 74.2589 566.392 74.2589 563.225C74.2589 560.058 70.6585 552.367 66.383 546.26C39.1547 507.355 39.3797 508.712 53.7815 485.188C60.0822 474.783 65.9329 463.247 66.608 459.628C68.1832 452.389 63.9077 442.663 54.0065 429.77C50.6311 425.472 46.1306 418.46 44.1053 414.615C39.8298 406.246 40.2798 405.341 55.3567 383.4C59.6322 377.293 63.0076 369.602 63.0076 366.209C63.0076 360.554 61.4324 358.519 45.4555 344.042C41.63 340.423 38.2546 335.221 38.2546 332.506C38.2546 325.72 45.6805 312.375 54.6816 303.101L62.5575 295.184L56.7068 285.005C47.9308 269.624 36.2294 253.112 28.5784 244.969C22.7277 238.635 21.8276 236.6 23.8529 231.623C26.3282 224.159 43.2052 209.456 54.6816 204.706L63.2326 201.087L54.0065 213.754C48.8309 220.766 43.2052 229.814 41.63 233.885C38.4796 241.124 38.7047 241.802 46.8056 251.302C51.3062 256.731 56.2568 262.612 57.832 264.195C59.4071 265.779 64.1327 271.434 68.6333 276.862C81.9099 293.148 79.2095 310.565 60.3073 331.828C54.6816 337.935 56.9319 342.685 69.9834 353.09C78.7595 360.102 79.2095 361.007 78.0844 370.281C77.6343 375.709 73.5839 385.888 68.8583 393.805C64.3577 401.269 60.7573 409.412 60.7573 411.901C60.7573 420.948 76.5092 451.485 83.485 455.782C87.9856 458.723 85.0602 469.128 75.3841 482.473C63.2326 498.985 61.2074 505.319 65.7079 510.748C74.709 520.926 85.2853 538.57 89.5608 550.332L94.5114 563.451L89.5608 575.213C86.8605 581.773 83.485 588.559 81.9099 590.368C76.5092 597.38 69.7584 612.988 69.7584 619.095C69.7584 622.488 71.7836 637.643 74.2589 652.572C76.7342 667.501 78.7595 681.525 78.7595 683.787C78.7595 690.346 75.159 688.084 70.4335 678.132Z" fill="#BF852E"/>
<path d="M246.405 498.307C236.729 495.819 223.227 484.283 212.651 469.58C210.175 466.187 205.45 459.628 202.074 455.33C193.973 444.925 192.623 433.389 194.423 392.674C196.224 352.411 198.699 345.399 216.926 328.435C227.052 319.387 232.003 316.673 246.855 312.601C281.734 303.101 311.438 308.756 334.84 329.339C359.368 350.828 364.544 372.543 355.768 415.067C353.293 427.508 350.592 443.115 349.692 449.901C346.767 473.199 326.514 486.997 283.534 495.593C260.806 499.89 254.731 500.343 246.405 498.307ZM301.311 471.39C311.888 468.223 313.688 466.866 317.513 457.818C326.514 437.461 326.514 394.71 317.513 364.852C313.688 351.959 310.537 346.53 302.436 338.387C290.735 326.625 285.784 325.72 271.833 332.732C243.479 347.209 222.327 367.793 217.151 385.436C207.925 416.198 211.3 435.199 228.403 453.294C239.429 464.83 244.604 467.544 263.282 471.842C280.159 475.687 287.36 475.687 301.311 471.39Z" fill="#BF852E"/>
<path d="M253.606 441.532C246.855 434.068 240.554 415.972 239.204 400.138C238.079 385.662 238.304 383.852 243.254 378.65C246.18 375.483 252.931 370.281 257.881 367.34L267.332 361.685L279.709 366.435C307.612 377.067 308.062 378.65 295.911 431.579C293.21 442.889 261.482 450.354 253.606 441.532ZM285.335 406.472C286.235 394.031 282.184 385.888 274.533 383.852C266.882 381.817 258.781 391.995 258.781 403.079C258.781 410.77 259.681 412.353 266.207 415.067C270.033 416.877 275.883 418.234 279.034 417.782C283.984 417.329 284.659 416.198 285.335 406.472Z" fill="#BF852E"/>
<path d="M1565.29 416.198C1560.56 415.293 1555.84 413.258 1554.71 411.448C1551.79 407.15 1554.04 396.745 1559.66 387.698C1563.71 380.912 1565.51 380.007 1574.06 380.007C1580.14 380.007 1584.64 381.364 1586.67 383.626C1590.04 387.924 1590.72 410.543 1587.57 413.71C1583.97 417.103 1574.74 418.234 1565.29 416.198Z" fill="#BF852E"/>
<path d="M975.718 231.397C971.217 226.647 967.617 222.123 967.617 221.218C967.617 220.314 962.216 213.075 955.69 205.385C926.887 170.777 913.61 153.812 913.61 151.55C913.61 146.574 919.686 149.741 928.462 159.015C940.838 171.908 965.366 203.123 965.366 205.611C965.366 206.742 967.617 210.587 970.542 214.206C977.293 222.349 986.069 237.731 984.944 239.088C984.269 239.54 980.218 236.147 975.718 231.397Z" fill="#BF852E"/>
<path d="M853.078 126.217C839.126 116.716 835.976 110.157 835.976 91.6089C835.976 78.2634 836.876 73.7395 840.701 68.7632C848.352 58.3582 856.453 53.6081 868.379 52.4772C886.607 50.8938 911.135 59.0368 911.36 67.1798C911.36 72.3823 906.634 72.6085 896.733 67.8584C884.806 62.2035 867.254 60.8464 859.153 65.1441C850.827 69.668 846.102 79.3943 846.102 92.5136C846.102 102.466 847.227 105.181 853.528 112.193C859.603 118.978 862.304 120.109 871.08 120.336C885.257 120.562 890.657 118.3 894.483 110.835C900.558 98.8471 897.633 87.5373 887.282 83.4658C878.506 80.0729 870.855 85.954 870.855 96.1327C870.855 102.466 869.955 104.05 866.579 104.05C856.903 104.05 858.253 84.5968 868.154 76.68C877.156 69.668 894.483 71.7037 901.458 80.2991C904.159 83.9182 907.084 89.3469 907.534 92.5136C909.559 102.014 904.834 116.716 897.633 123.502C892.007 128.931 888.632 130.062 875.805 130.741C862.979 131.419 859.603 130.741 853.078 126.217Z" fill="#BF852E"/>
<path d="M1159.79 1270.54C1151.01 1261.49 1145.39 1250.63 1145.39 1242.94C1145.39 1230.05 1170.82 1200.64 1210.87 1167.16C1218.97 1160.38 1236.07 1145.22 1248.9 1133.69C1300.66 1087.32 1347.69 1064.7 1385.94 1068.32C1401.69 1069.67 1409.12 1073.29 1421.5 1085.96C1449.4 1114.24 1460.2 1194.99 1440.85 1230.73C1432.75 1245.88 1419.7 1254.25 1398.99 1257.64C1354.89 1265.33 1314.38 1245.43 1303.58 1211.05C1300.43 1201.09 1300.43 1197.25 1302.68 1185.94C1310.11 1148.39 1343.86 1112.2 1367.49 1116.5C1379.64 1118.53 1391.12 1125.54 1396.97 1134.14C1402.82 1142.96 1406.64 1167.62 1404.84 1187.3C1403.72 1199.51 1403.04 1201.09 1397.42 1203.13C1388.87 1206.07 1374.92 1202.45 1369.97 1196.12C1363.44 1187.75 1362.54 1180.74 1366.59 1169.43C1370.64 1157.89 1369.06 1154.5 1360.29 1156.76C1347.01 1160.15 1337.11 1179.38 1340.26 1195.89C1341.16 1201.32 1344.99 1207.43 1351.06 1213.53C1358.94 1221.45 1362.99 1223.49 1377.84 1226.88C1405.74 1233.44 1419.7 1228.24 1430.05 1207.2C1435.45 1195.89 1436.12 1192.27 1435.9 1171.91C1435.67 1148.16 1432.97 1137.76 1423.3 1121.93C1410.02 1100.66 1394.04 1092.07 1368.84 1092.29C1353.76 1092.52 1349.49 1093.43 1336.89 1099.76C1306.28 1115.59 1280.63 1156.76 1274.78 1199.51C1271.63 1223.49 1283.55 1250.86 1304.71 1268.27L1316.63 1278L1241.7 1277.77H1166.77L1159.79 1270.54Z" fill="#BF852E"/>
<path d="M1811.02 1239.09C1810.57 1216.93 1810.57 1216.02 1812.37 1190.01C1813.49 1174.63 1815.97 1164.68 1815.97 1175.76C1815.97 1178.25 1816.87 1180.96 1817.77 1181.64C1819.57 1182.77 1818.89 1245.88 1817.09 1254.93C1814.39 1266.46 1811.47 1258.55 1811.02 1239.09Z" fill="#BF852E"/>
<path d="M1869.75 1230.05C1868.17 1227.11 1866.37 1224.39 1865.47 1223.71C1863.67 1222.36 1852.42 1198.61 1843.2 1176.21C1839.15 1166.94 1834.42 1155.85 1832.62 1151.56C1827.67 1140.47 1830.37 1140.47 1837.8 1151.56C1858.05 1182.09 1879.65 1226.2 1877.4 1232.08C1875.6 1236.38 1872.68 1235.7 1869.75 1230.05Z" fill="#BF852E"/>
<path d="M1820.92 1214.67C1820.92 1210.37 1821.37 1208.56 1822.04 1210.82C1822.49 1212.86 1822.49 1216.47 1822.04 1218.74C1821.37 1220.77 1820.92 1218.96 1820.92 1214.67Z" fill="#BF852E"/>
<path d="M1759.71 1206.97C1759.71 1202.45 1764.44 1189.78 1766.24 1189.78C1767.14 1189.78 1769.16 1186.17 1770.74 1181.64C1772.31 1177.34 1775.69 1170.33 1778.16 1166.49C1780.64 1162.41 1786.04 1153.59 1790.32 1146.81C1799.09 1132.78 1800.22 1136.18 1793.69 1156.99C1787.39 1177.34 1778.16 1197.02 1771.64 1204.03C1765.11 1210.59 1759.71 1211.95 1759.71 1206.97Z" fill="#BF852E"/>
<path d="M1902.6 1172.82C1895.18 1168.52 1887.08 1164 1884.6 1162.87C1878.3 1160.15 1856.47 1144.77 1850.85 1139.34C1848.37 1136.85 1847.47 1135.27 1848.6 1135.95C1849.95 1136.63 1858.05 1140.47 1866.6 1144.32C1893.6 1156.53 1926.23 1175.31 1926.23 1178.47C1926.23 1183 1915.88 1180.28 1902.6 1172.82Z" fill="#BF852E"/>
<path d="M1903.73 1133.24C1899.45 1132.33 1890.23 1130.29 1883.48 1128.71C1876.73 1127.35 1869.52 1125.77 1867.72 1125.32C1865.92 1124.87 1863 1124.41 1861.42 1124.41C1859.85 1124.19 1858.95 1123.28 1859.62 1122.38C1860.97 1120.12 1876.05 1120.79 1904.18 1124.19C1927.13 1126.9 1930.06 1127.81 1930.06 1132.1C1930.06 1135.95 1917.68 1136.4 1903.73 1133.24Z" fill="#BF852E"/>
<path d="M1785.14 1064.92C1779.51 1062.21 1778.61 1058.37 1782.21 1051.58C1785.59 1045.47 1793.02 1046.15 1794.82 1052.71C1796.39 1059.5 1795.27 1065.83 1792.34 1066.73C1791.22 1066.96 1787.84 1066.28 1785.14 1064.92Z" fill="#BF852E"/>
<path d="M1617.94 1043.21C1617.94 1037.78 1623.12 1033.03 1628.3 1034.16C1636.62 1035.75 1633.92 1043.66 1624.02 1046.15C1618.84 1047.51 1617.94 1047.06 1617.94 1043.21Z" fill="#BF852E"/>
<path d="M1693.1 1019.01C1689.5 1013.58 1689.5 1012.9 1693.33 1008.83C1697.83 1003.85 1704.58 1002.95 1706.83 1006.79C1709.31 1010.64 1705.93 1019.91 1701.2 1022.4C1697.6 1024.44 1696.25 1023.76 1693.1 1019.01Z" fill="#BF852E"/>
<path d="M1877.85 1008.83C1875.6 1005.21 1881.23 997.292 1885.28 997.971C1890 998.876 1891.58 1006.57 1887.53 1009.05C1883.48 1011.77 1879.65 1011.54 1877.85 1008.83Z" fill="#BF852E"/>
<path d="M328.09 989.828C324.714 988.018 321.339 987.34 320.664 988.018C319.764 988.923 319.313 988.697 319.764 987.34C319.989 986.209 319.088 982.363 317.288 978.97C315.488 975.125 315.038 969.47 315.938 962.684C317.288 954.315 318.863 951.601 325.389 947.529C331.69 943.684 335.29 943.006 343.391 944.137C353.293 945.494 360.043 949.565 360.043 954.315C360.043 957.256 356.218 957.482 354.643 954.768C351.942 950.47 335.29 949.339 329.89 953.184C322.689 957.708 320.889 973.994 326.739 978.066C328.99 979.649 330.115 981.685 329.215 982.363C326.964 984.625 342.716 984.173 346.317 981.911C353.743 977.161 351.267 963.589 342.941 963.589C338.441 963.589 337.541 964.72 337.541 969.923C337.541 978.066 331.69 978.518 329.665 970.601C327.865 963.363 334.84 956.803 344.292 956.803C350.367 956.803 357.568 961.553 358.018 966.077C359.593 978.744 356.668 985.078 347.892 989.375C338.666 993.899 335.966 993.899 328.09 989.828Z" fill="#BF852E"/>
<path d="M1840.27 975.578C1832.4 973.542 1838.02 952.28 1846.35 952.28C1850.85 952.28 1856.47 961.327 1856.47 968.339C1856.47 976.256 1851.3 978.518 1840.27 975.578Z" fill="#BF852E"/>
<path d="M1612.09 971.506C1609.39 964.946 1612.99 961.101 1620.65 961.78C1633.47 962.911 1631.45 974.673 1618.39 974.899C1615.69 974.899 1612.77 973.316 1612.09 971.506Z" fill="#BF852E"/>
<path d="M1896.98 947.077C1896.98 945.268 1899 942.101 1901.25 940.065C1904.85 936.898 1906.43 936.672 1910.48 938.708C1917.91 942.779 1915.21 948.661 1905.3 949.565C1899.23 950.018 1896.98 949.339 1896.98 947.077Z" fill="#BF852E"/>
<path d="M1768.26 943.91C1758.81 942.327 1756.34 937.577 1761.96 931.922C1768.26 925.589 1775.46 926.946 1779.96 934.863C1782.89 940.291 1782.89 941.422 1779.96 943.232C1778.16 944.363 1776.14 945.268 1775.46 945.041C1774.79 945.041 1771.64 944.363 1768.26 943.91Z" fill="#BF852E"/>
<path d="M1608.94 930.339C1620.87 925.815 1653.95 912.922 1659.57 910.434C1665.2 907.946 1672.85 905.231 1678.7 903.648C1679.38 903.422 1681.4 902.743 1683.2 901.838C1685 901.16 1690.63 899.35 1695.58 897.993C1720.11 890.529 1796.62 855.695 1817.09 842.349C1824.07 838.051 1830.37 834.658 1830.82 835.111C1832.17 836.694 1816.64 848.683 1800.22 858.635C1792.12 863.385 1784.24 868.814 1782.66 870.171C1781.09 871.754 1778.61 873.112 1777.26 873.112C1775.91 873.112 1765.79 877.635 1754.31 883.064C1732.71 893.469 1710.43 902.517 1695.58 907.041C1690.63 908.398 1683.43 911.112 1679.38 912.922C1675.55 914.731 1671.05 916.089 1669.25 916.089C1667.68 916.089 1663.4 917.672 1659.8 919.481C1656.2 921.517 1651.7 922.422 1650.12 921.97C1648.55 921.291 1647.2 921.743 1647.2 922.874C1647.2 924.232 1646.52 924.91 1645.62 924.684C1644.5 924.458 1636.62 926.041 1627.62 928.077C1612.09 931.696 1601.52 933.053 1608.94 930.339Z" fill="#BF852E"/>
<path d="M360.043 917.446C360.043 915.41 364.994 912.696 371.97 910.434C401.223 900.933 438.128 874.921 461.756 847.099C479.758 825.837 483.583 816.563 479.533 802.539C473.007 779.919 443.078 745.085 391.547 699.394C373.095 683.108 368.594 676.096 376.02 674.513C379.621 673.834 416.975 703.918 439.703 725.859C462.656 748.026 486.284 776.526 493.259 790.324C501.135 806.158 500.91 814.979 491.909 835.337C485.834 849.361 461.981 875.373 445.554 885.552C429.127 895.957 402.799 908.624 384.346 914.731C364.769 921.517 360.043 921.97 360.043 917.446Z" fill="#BF852E"/>
<path d="M1956.16 911.338C1952.33 907.493 1955.26 902.517 1961.11 902.517C1964.04 902.517 1966.74 903.874 1967.41 905.684C1968.76 909.076 1964.94 913.827 1961.11 913.827C1959.76 913.827 1957.51 912.696 1956.16 911.338Z" fill="#BF852E"/>
<path d="M1757.46 904.779C1757.46 903.648 1759.04 903.422 1761.29 904.1C1763.76 905.005 1764.44 904.779 1763.31 902.743C1762.41 901.386 1762.41 900.255 1763.54 900.481C1764.44 900.707 1768.26 899.803 1771.64 898.445C1775.24 896.862 1778.84 895.731 1779.74 895.731C1782.66 895.731 1811.69 875.826 1823.84 865.195C1830.15 859.992 1843.65 847.778 1854.22 838.051C1875.38 819.051 1886.85 810.908 1875.38 823.575C1867.5 832.396 1866.37 833.754 1854.45 850.266C1843.42 865.421 1826.09 878.54 1799.54 891.886C1774.34 904.553 1757.46 909.755 1757.46 904.779Z" fill="#BF852E"/>
<path d="M1639.32 885.1C1647.65 883.064 1684.1 870.623 1692.88 867.004C1697.38 864.969 1701.2 862.254 1701.2 861.123C1701.2 860.218 1702.33 859.992 1703.91 860.897C1705.26 861.802 1707.73 860.671 1709.53 858.183C1711.33 855.921 1713.36 853.885 1714.26 854.111C1716.06 854.337 1725.73 848.456 1730.01 844.385C1731.58 842.801 1734.06 841.444 1735.18 841.444C1736.31 841.444 1744.64 836.468 1753.64 830.587C1762.41 824.48 1772.31 817.92 1775.46 815.884C1778.61 813.849 1785.14 809.325 1790.09 805.706C1795.04 802.313 1801.12 798.693 1803.59 797.789C1809.22 795.753 1781.09 822.218 1772.54 826.968C1768.94 828.777 1758.36 836.016 1749.14 842.801C1739.68 849.587 1731.13 855.016 1730.01 855.016C1728.88 855.016 1724.61 857.504 1720.56 860.671C1716.51 863.838 1712.46 865.647 1711.78 864.969C1710.88 864.064 1707.96 864.969 1705.26 866.778C1692.88 874.695 1653.05 886.909 1640.45 886.457C1635.95 886.231 1635.72 886.005 1639.32 885.1Z" fill="#BF852E"/>
<path d="M345.642 880.35C344.741 877.635 339.341 874.242 331.015 871.076C322.014 867.909 315.038 863.385 309.637 857.278C299.961 846.421 299.736 844.385 307.837 841.444C327.864 833.98 346.992 818.372 351.042 806.158C354.193 796.884 349.692 786.931 339.791 781.05C336.19 779.015 333.04 776.526 333.04 775.848C333.04 772.455 340.466 752.097 347.667 735.133C352.167 724.502 357.343 711.608 359.368 706.406C365.219 689.668 366.119 689.894 391.772 715.454C425.751 748.931 442.178 768.836 456.58 793.491C464.906 807.741 464.906 809.325 458.605 820.408C453.655 828.777 449.379 833.075 435.202 844.611C425.751 852.302 393.122 869.04 373.095 876.504C349.467 885.326 347.217 885.552 345.642 880.35Z" fill="#BF852E"/>
<path d="M1713.58 877.635C1714.26 876.278 1722.58 871.076 1731.81 866.099C1741.03 860.897 1750.04 855.242 1751.84 853.659C1753.64 851.849 1755.66 850.266 1756.34 850.492C1761.06 850.718 1761.96 850.266 1760.61 847.778C1759.71 846.421 1759.94 845.968 1761.51 846.873C1762.86 847.551 1765.56 846.647 1767.36 844.611C1769.39 842.801 1770.96 841.897 1770.96 842.801C1770.96 843.706 1772.54 842.575 1774.56 840.087C1776.36 837.825 1777.26 837.147 1776.59 838.73C1775.24 841.218 1775.91 841.444 1779.74 839.408C1782.21 837.825 1784.46 835.789 1784.46 834.658C1784.46 833.301 1785.81 832.396 1787.39 832.396C1788.74 832.396 1792.57 831.039 1795.72 829.23C1798.87 827.646 1808.54 822.444 1817.09 817.92L1832.85 809.777L1825.19 816.563C1820.92 820.182 1800.67 832.623 1780.19 843.932C1759.71 855.242 1741.71 865.421 1740.36 866.552C1736.76 869.492 1716.28 879.897 1714.03 879.897C1712.91 879.897 1712.91 878.766 1713.58 877.635Z" fill="#BF852E"/>
<path d="M1896.3 869.945C1895.63 868.135 1897.43 864.516 1900.13 862.028C1905.08 857.278 1905.75 857.278 1909.13 860.897C1911.38 862.933 1912.51 866.099 1911.83 867.909C1911.16 869.719 1910.48 871.754 1910.48 872.207C1910.48 874.695 1897.2 872.659 1896.3 869.945Z" fill="#BF852E"/>
<path d="M181.372 814.753C180.247 812.944 195.098 807.967 213.551 803.896C218.051 802.991 218.501 803.443 216.476 805.932C214.901 807.741 214.226 809.551 214.901 810.229C215.576 810.908 210.175 812.039 202.974 812.717C195.773 813.622 188.123 814.753 186.322 815.432C184.297 816.337 182.047 815.884 181.372 814.753Z" fill="#BF852E"/>
<path d="M1649.45 786.931C1640 783.086 1633.7 775.622 1633.7 768.157C1633.7 764.312 1634.6 760.014 1635.5 758.883C1639.77 752.776 1650.8 746.443 1657.32 746.443C1664.3 746.443 1664.53 746.669 1664.3 756.395C1664.08 768.61 1669.7 775.848 1679.15 775.848C1687.93 775.848 1686.58 780.372 1676.23 785.348C1667.68 789.872 1658 790.324 1649.45 786.931Z" fill="#BF852E"/>
<path d="M1756.34 764.764C1752.51 762.955 1752.51 762.502 1755.66 762.502C1760.16 762.276 1766.46 751.419 1766.46 743.728C1766.46 736.49 1760.39 728.347 1754.99 728.347C1747.79 728.347 1750.26 724.049 1758.59 722.466C1774.79 719.525 1791.67 727.894 1794.82 740.561C1796.39 746.895 1790.77 758.883 1784.46 762.276C1778.16 765.669 1761.51 767.026 1756.34 764.764Z" fill="#BF852E"/>
<path d="M558.067 229.814C537.59 225.29 508.561 214.433 508.561 211.492C508.561 209.23 510.587 209.004 515.987 210.587C519.813 211.492 532.414 214.659 543.44 217.373C554.692 220.314 565.043 223.933 566.618 225.516C568.193 227.099 571.119 228.457 572.919 228.457C574.719 228.457 576.069 229.588 576.069 230.719C576.069 233.433 574.044 233.433 558.067 229.814Z" fill="#BF852E"/>
<path d="M1076.3 205.837C1067.3 202.218 1063.7 193.623 1065.5 179.825C1066.18 173.039 1068.2 166.027 1069.55 164.444C1071.13 162.86 1073.38 159.693 1074.73 157.205C1079.68 148.158 1094.98 147.253 1103.98 155.396C1111.63 162.182 1119.28 179.825 1117.48 186.611C1114.78 197.694 1101.06 197.92 1089.81 187.289C1081.7 179.599 1083.28 175.753 1092.28 181.182C1106.68 189.777 1112.76 178.468 1100.61 165.348C1093.18 157.431 1088.01 156.527 1081.03 162.408C1073.38 168.515 1065.95 185.48 1070.9 185.48C1072.03 185.48 1074.05 188.42 1075.63 192.265C1077.2 195.885 1079.23 198.373 1080.35 197.694C1081.48 197.016 1082.38 197.468 1082.38 198.825C1082.38 199.956 1086.66 202.444 1092.06 204.254L1101.51 207.647L1091.38 207.873C1085.76 207.873 1079 206.968 1076.3 205.837Z" fill="#BF852E"/>
<path d="M1165.42 194.075C1160.46 192.944 1155.96 189.777 1154.39 186.611C1152.81 183.444 1150.79 181.634 1149.66 182.087C1147.64 183.444 1149.21 167.384 1152.14 155.848C1155.29 144.765 1163.61 138.657 1171.72 141.598C1180.04 144.538 1186.34 154.265 1186.79 164.217C1187.02 171.456 1186.12 173.265 1180.72 175.98C1175.77 178.241 1172.84 178.468 1166.77 176.432C1155.29 172.587 1154.16 168.741 1165.19 170.777C1173.97 172.134 1174.19 171.908 1175.77 165.122C1178.47 152.908 1169.02 147.253 1159.11 155.622C1156.41 157.658 1153.94 162.634 1153.49 166.706C1152.36 175.527 1156.41 179.599 1176.67 189.325L1191.52 196.337H1182.52C1177.57 196.337 1169.92 195.432 1165.42 194.075Z" fill="#BF852E"/>
<path d="M1223.7 177.563C1219.2 175.075 1217.17 171.456 1215.15 162.182C1211.32 145.896 1213.57 142.503 1230.9 137.074C1242.6 133.455 1245.08 133.229 1246.88 135.943C1251.6 143.407 1247.55 160.598 1241.25 160.598C1237.65 160.598 1234.72 154.491 1236.75 151.324C1238.77 147.931 1235.4 140.241 1231.8 140.241C1227.52 140.241 1223.7 150.419 1224.6 159.241C1225.27 166.027 1225.5 166.253 1236.97 166.253C1250.93 166.027 1259.25 159.693 1261.5 147.479C1262.85 140.014 1263.3 139.788 1266 143.634C1273.65 154.265 1266.23 170.551 1250.7 176.658C1238.77 181.634 1231.57 181.86 1223.7 177.563Z" fill="#BF852E"/>
<path d="M1299.98 142.276C1293.68 136.395 1295.03 121.693 1302.68 113.324C1309.66 105.633 1312.81 104.954 1322.48 108.8C1338.24 114.681 1343.64 128.252 1333.74 137.526C1330.81 140.241 1327.89 142.503 1327.21 142.503C1326.31 142.503 1325.86 137.753 1326.08 132.098C1326.53 120.109 1322.93 116.038 1313.48 118.526C1301.56 121.467 1300.43 137.753 1311.68 141.372C1318.43 143.407 1317.53 145.896 1310.11 145.896C1306.51 145.896 1302.01 144.312 1299.98 142.276Z" fill="#BF852E"/>
<path d="M1050.43 139.788C1051.33 138.884 1054.25 137.3 1056.73 136.848C1058.98 136.169 1074.28 132.324 1090.26 128.026C1128.29 118.074 1147.64 113.324 1165.64 109.478C1173.74 107.895 1185.89 104.954 1192.64 102.919C1199.39 101.109 1218.3 96.5851 1234.27 92.7398C1250.48 88.8945 1270.73 83.9182 1279.28 81.4301C1288.05 78.942 1296.61 76.9062 1298.41 76.9062C1300.43 76.9062 1306.06 74.8705 1310.78 72.3823C1315.73 69.8942 1320.91 68.3108 1322.48 68.9894C1326.31 70.3466 1326.31 82.5611 1322.71 85.2754C1311.01 94.097 1224.15 113.097 1112.76 131.193C1097.91 133.455 1082.83 136.622 1079 137.753C1070 140.919 1047.73 142.503 1050.43 139.788Z" fill="#BF852E"/>
<path d="M1716.96 126.669C1716.96 110.61 1758.14 45.0131 1787.39 14.2506C1808.54 -8.1427 1810.12 -4.97597 1793.02 25.5603C1770.51 65.823 1738.56 111.967 1722.81 126.443L1716.96 131.872V126.669Z" fill="#BF852E"/>
<path d="M1527.26 102.466C1526.58 101.335 1534.23 90.4779 1544.14 78.0372C1572.94 41.6198 1587.34 18.548 1587.57 8.5954V0H1600.39C1608.94 0 1613.89 1.13097 1615.02 3.16673C1615.92 4.75009 1624.92 7.91681 1634.82 9.95257C1653.5 13.7979 1662.95 18.3218 1662.95 23.5242C1662.95 30.9887 1650.8 31.2149 1632.57 23.7504C1624.92 20.8099 1616.82 18.7742 1614.34 19.4527C1611.87 20.1313 1607.37 24.429 1604.44 28.9529C1597.69 38.9055 1551.11 86.1802 1537.61 96.8113C1532.43 100.883 1527.71 103.371 1527.26 102.466Z" fill="#BF852E"/>
<path d="M429.352 82.7872C429.802 73.5133 428.452 52.9295 426.651 36.8697C421.926 -1.58338 421.701 -1.93476e-05 429.802 -1.93476e-05H436.552V36.8697C436.552 70.5727 433.627 99.5256 430.027 99.5256C429.352 99.5256 428.902 92.0612 429.352 82.7872Z" fill="#BF852E"/>
<path d="M1045.7 83.2396C1043.68 75.549 1048.18 70.1203 1061.68 64.0131C1082.61 54.7391 1155.06 31.8934 1203.89 19.0003C1212 16.9646 1225.72 13.3455 1234.27 11.0835C1252.95 6.10724 1263.08 5.65485 1250.25 10.4049C1245.52 12.2145 1240.35 14.4764 1239 15.3812C1237.65 16.5122 1230.45 19.2265 1223.02 21.4885C1215.6 23.7504 1208.62 26.2386 1207.27 27.1434C1206.15 28.0481 1200.97 30.0839 1196.02 31.6672C1191.07 33.2506 1186.12 35.2864 1184.77 36.1911C1182.52 37.7745 1166.09 44.108 1125.14 59.9416C1113.43 64.4655 1101.73 68.9894 1099.26 70.1203C1088.23 75.3228 1052.9 88.2159 1049.98 88.2159C1048.4 88.2159 1046.38 85.954 1045.7 83.2396Z" fill="#BF852E"/>
<path d="M221.201 46.5961C205.9 40.9412 193.073 31.6673 181.147 17.6432C170.795 5.42867 170.795 0 180.697 0C187.447 0 188.797 1.13097 192.398 8.82159C194.423 13.7979 198.924 20.3575 202.299 23.2981C212.425 33.0244 236.278 36.6435 254.955 31.4411C265.307 28.7267 278.808 15.6074 280.609 6.55965C281.734 0.678584 282.634 0 290.51 0C300.411 0 300.636 0 295.685 14.2503C290.735 28.7267 276.783 40.9412 257.656 47.0485C239.654 53.1558 238.528 53.1558 221.201 46.5961Z" fill="#BF852E"/>
<path d="M1068.88 33.9292C1095.66 19.6789 1122.44 6.78584 1124.91 6.78584C1126.04 6.78584 1128.06 5.20248 1129.64 3.39292C1131.66 0.904779 1137.06 0 1150.79 0L1169.02 0.226195L1158.89 4.2977C1153.26 6.55965 1140.21 11.7621 1129.64 15.8336C1119.06 19.9051 1109.61 23.9766 1108.26 24.8814C1107.13 25.7862 1099.93 28.2743 1092.51 30.3101C1085.08 32.572 1074.95 35.965 1070 38.2269C1049.75 47.5009 1049.08 44.5604 1068.88 33.9292Z" fill="#BF852E"/>
<path d="M1049.3 5.65484C1047.5 0.452366 1049.3 -0.452412 1060.1 0.452366C1069.33 1.13095 1069.55 1.35715 1065.73 5.20245C1060.78 9.95254 1051.1 10.1787 1049.3 5.65484Z" fill="#BF852E"/>
<path d="M1727.31 4.97625C1726.63 4.52386 1722.81 3.16669 1718.76 2.26191C1714.03 1.13094 1724.38 0.452356 1746.66 0.226161C1777.49 -3.32793e-05 1781.99 0.452356 1780.86 3.39289C1779.74 6.33342 1775.01 6.78581 1753.86 6.55961C1739.91 6.33342 1727.76 5.65483 1727.31 4.97625Z" fill="#BF852E"/>
</g>
<defs>
<clipPath id="clip0_175_10">
<rect width="2077" height="1278" fill="white"/>
</clipPath>
</defs>
</svg>
